<svg width="676" height="504" viewBox="0 0 676 504" fill="none" xmlns="http://www.w3.org/2000/svg">
<path d="M675.6 442.383H0V442.721H675.6V442.383Z" fill="#EBEBEB"/>
<path d="M607.904 455.247H485.08V455.584H607.904V455.247Z" fill="#EBEBEB"/>
<path d="M447.544 451.584H413.913V451.922H447.544V451.584Z" fill="#EBEBEB"/>
<path d="M524.414 467.799H472.271V468.137H524.414V467.799Z" fill="#EBEBEB"/>
<path d="M101.475 465.529H70.8838V465.867H101.475V465.529Z" fill="#EBEBEB"/>
<path d="M149.835 465.529H113.501V465.867H149.835V465.529Z" fill="#EBEBEB"/>
<path d="M304.223 459.827H240.933V460.164H304.223V459.827Z" fill="#EBEBEB"/>
<path d="M320.234 382.119H59.3307C57.2868 382.116 55.3279 381.301 53.8839 379.855C52.4399 378.408 51.6289 376.448 51.6289 374.404V7.64779C51.6467 5.61562 52.4656 3.67253 53.9076 2.24058C55.3497 0.808637 57.2985 0.00348121 59.3307 0H320.234C322.28 0 324.243 0.812865 325.69 2.25977C327.136 3.70668 327.949 5.66911 327.949 7.71535V374.404C327.949 376.45 327.136 378.413 325.69 379.86C324.243 381.306 322.28 382.119 320.234 382.119ZM59.3307 0.270241C57.3764 0.27382 55.5034 1.05267 54.1228 2.43584C52.7421 3.81902 51.9667 5.69348 51.9667 7.64779V374.404C51.9667 376.358 52.7421 378.233 54.1228 379.616C55.5034 380.999 57.3764 381.778 59.3307 381.781H320.234C322.189 381.778 324.064 381 325.447 379.617C326.829 378.234 327.608 376.36 327.612 374.404V7.64779C327.608 5.69224 326.829 3.81781 325.447 2.43502C324.064 1.05223 322.189 0.273813 320.234 0.270241H59.3307Z" fill="#EBEBEB"/>
<path d="M612.513 382.119H351.596C349.551 382.116 347.591 381.302 346.145 379.856C344.698 378.409 343.884 376.449 343.881 374.404V7.64779C343.902 5.61439 344.724 3.67131 346.168 2.23974C347.612 0.808164 349.563 0.00344325 351.596 0H612.513C614.543 0.00703231 616.488 0.813759 617.927 2.24533C619.366 3.67689 620.183 5.61795 620.201 7.64779V374.404C620.201 376.446 619.392 378.404 617.951 379.85C616.51 381.296 614.554 382.112 612.513 382.119ZM351.596 0.270241C349.641 0.273813 347.766 1.05223 346.383 2.43502C345.001 3.81781 344.222 5.69224 344.219 7.64779V374.404C344.222 376.36 345.001 378.234 346.383 379.617C347.766 381 349.641 381.778 351.596 381.781H612.513C614.468 381.778 616.343 381 617.726 379.617C619.108 378.234 619.887 376.36 619.89 374.404V7.64779C619.887 5.69224 619.108 3.81781 617.726 2.43502C616.343 1.05223 614.468 0.273813 612.513 0.270241H351.596Z" fill="#EBEBEB"/>
<path d="M575.881 434.708H601.216V294.156H575.881V434.708Z" fill="#F0F0F0"/>
<path d="M317.289 442.383L596.353 442.383V434.694L317.289 434.694V442.383Z" fill="#F0F0F0"/>
<path d="M575.881 294.143H312.424V434.695H575.881V294.143Z" fill="#F5F5F5"/>
<path d="M578.515 294.143H604.404V287.441H578.515V294.143Z" fill="#F0F0F0"/>
<path d="M578.516 287.441H309.236V294.143H578.516V287.441Z" fill="#FAFAFA"/>
<path d="M566.788 344.867H321.585V308.222H566.788V344.867ZM323.234 343.205H565.099V309.965H323.234V343.205Z" fill="#E0E0E0"/>
<path d="M566.788 420.628H321.585V355.027H566.788V420.628ZM323.234 418.872H565.099V356.716H323.234V418.872Z" fill="#E0E0E0"/>
<path d="M356.812 314.519H531.495C532.734 314.519 533.738 313.515 533.738 312.276V311.303C533.738 310.064 532.734 309.06 531.495 309.06H356.812C355.573 309.06 354.569 310.064 354.569 311.303V312.276C354.569 313.515 355.573 314.519 356.812 314.519Z" fill="#E0E0E0"/>
<path d="M356.812 361.338H531.495C532.734 361.338 533.738 360.334 533.738 359.095V358.122C533.738 356.883 532.734 355.879 531.495 355.879H356.812C355.573 355.879 354.569 356.883 354.569 358.122V359.095C354.569 360.334 355.573 361.338 356.812 361.338Z" fill="#E0E0E0"/>
<path d="M77.1534 442.383H87.6792L87.6792 263.484H77.1534L77.1534 442.383Z" fill="#E6E6E6"/>
<path d="M73.8433 442.383H81.1533L81.1533 263.484H73.8433L73.8433 442.383Z" fill="#F0F0F0"/>
<path d="M196.802 263.484H71.5732V276.415H196.802V263.484Z" fill="#F0F0F0"/>
<path d="M201.518 442.383H212.043L212.043 276.428H201.518L201.518 442.383Z" fill="#E6E6E6"/>
<path d="M198.208 442.383H205.518L205.518 276.428H198.208L198.208 442.383Z" fill="#F0F0F0"/>
<path d="M268.145 442.383H278.671V276.428H268.145V442.383Z" fill="#E6E6E6"/>
<path d="M264.808 442.383H272.118V276.428H264.808V442.383Z" fill="#F0F0F0"/>
<path d="M143.781 442.383H154.307L154.307 276.428H143.781L143.781 442.383Z" fill="#E6E6E6"/>
<path d="M140.458 442.383H147.768L147.768 276.428H140.458L140.458 442.383Z" fill="#F0F0F0"/>
<path d="M196.815 276.415H278.671V263.484H196.815V276.415Z" fill="#E6E6E6"/>
<path d="M186.195 163.455H85.0039L93.9624 85.1255H177.237L186.195 163.455Z" fill="#EBEBEB"/>
<path d="M141.106 163.455H130.093V263.484H141.106V163.455Z" fill="#F5F5F5"/>
<path d="M158.09 263.484H113.149C113.149 262.215 113.653 260.999 114.55 260.102C115.447 259.205 116.664 258.701 117.933 258.701H153.267C153.898 258.696 154.524 258.815 155.109 259.053C155.694 259.291 156.227 259.643 156.675 260.087C157.124 260.532 157.479 261.061 157.722 261.644C157.965 262.227 158.09 262.853 158.09 263.484Z" fill="#F0F0F0"/>
<path d="M141.106 172.116L130.093 166.86V163.455H141.106V172.116Z" fill="#E0E0E0"/>
<path d="M182.939 263.2H230.461L236.338 198.653H188.817L182.939 263.2Z" fill="#E6E6E6"/>
<path d="M180.479 263.2H228.001L233.878 198.653H186.357L180.479 263.2Z" fill="#F0F0F0"/>
<path d="M221.502 256.052L226.082 205.801H192.856L188.276 256.052H221.502Z" fill="white"/>
<path d="M573.976 216.908H477.514L458.746 283.752H555.208L573.976 216.908Z" fill="#E6E6E6"/>
<path d="M555.208 283.752L554.83 287.441H458.341L458.733 283.752H555.208Z" fill="#E6E6E6"/>
<path d="M571.017 216.908H474.542L455.773 283.752H552.249L571.017 216.908Z" fill="#F0F0F0"/>
<path d="M551.154 279.387L566.68 221.502C566.896 220.678 566.477 219.962 565.774 219.962H477.082C476.727 220.004 476.394 220.157 476.132 220.4C475.87 220.643 475.691 220.962 475.622 221.313L460.111 279.158C459.881 279.982 460.3 280.698 461.002 280.698H549.695C550.046 280.663 550.376 280.517 550.639 280.281C550.901 280.045 551.082 279.732 551.154 279.387Z" fill="white"/>
<path d="M527.103 283.752L526.711 287.441H420.479L420.871 283.752H527.103Z" fill="#F0F0F0"/>
<path d="M593.961 42.4819H359.906V186.939H593.961V42.4819Z" fill="#F0F0F0"/>
<path d="M587.312 49.1296H366.553V180.304H587.312V49.1296Z" fill="white"/>
<path d="M593.961 186.952H596.353V42.4954H593.961V186.952Z" fill="#E6E6E6"/>
<path d="M337.8 503.404C482.49 503.404 599.784 496.556 599.784 488.108C599.784 479.661 482.49 472.812 337.8 472.812C193.11 472.812 75.8159 479.661 75.8159 488.108C75.8159 496.556 193.11 503.404 337.8 503.404Z" fill="#F5F5F5"/>
<path d="M284.333 20.268C290.638 14.656 298.804 10.9808 308.83 9.24222C318.856 7.50367 329.454 8.60715 340.624 12.5527C351.758 16.4982 361.941 23.6235 371.174 33.9286C379.759 43.5131 385.56 53.5526 388.578 64.0469C391.588 73.7513 391.864 84.0979 389.375 93.9489C387.01 103.08 381.977 111.299 374.917 117.554C369.893 122.264 363.764 125.633 357.095 127.351C351.14 128.834 344.993 129.399 338.867 129.026C332.985 128.648 322.779 127.643 308.249 126.013C304.847 125.643 301.429 125.453 298.007 125.445C295.664 125.43 293.327 125.698 291.048 126.243C289.24 126.704 287.484 127.346 285.806 128.161C284.184 128.959 281.441 130.431 277.55 132.607C269.551 137.498 262.596 136.642 256.687 130.039C255.219 128.478 254.075 126.641 253.321 124.635C252.568 122.629 252.219 120.493 252.296 118.352C252.449 114.001 254.737 109.844 259.16 105.88C268.169 97.2474 280.236 92.5432 292.71 92.8004C299.812 93.0374 306.896 93.6327 313.938 94.584C321.423 95.4893 326.95 96.0568 330.517 96.246C334.058 96.4483 337.61 96.1527 341.07 95.3677C344.52 94.6031 347.711 92.9495 350.325 90.5709C352.883 88.3502 354.932 85.6033 356.331 82.5182C357.73 79.433 358.447 76.0822 358.433 72.6946C358.541 65.4882 355.838 58.7907 350.325 52.6022C343.813 45.3328 337.187 41.626 330.449 41.4818C323.711 41.3377 315.69 43.2744 306.384 47.292C296.917 51.7329 289.373 50.8321 283.752 44.5896C282.152 42.8748 280.928 40.8449 280.158 38.6299C279.388 36.4149 279.089 34.0635 279.279 31.7262C279.32 29.5766 279.788 27.4566 280.655 25.4895C281.523 23.5224 282.773 21.7475 284.333 20.268ZM219.016 165.779C215.485 161.943 213.514 156.926 213.489 151.713C213.408 146.38 215.71 141.61 220.394 137.404C222.322 135.621 224.598 134.257 227.08 133.399C229.561 132.541 232.194 132.206 234.811 132.418C237.462 132.578 240.054 133.271 242.431 134.455C244.808 135.639 246.922 137.29 248.648 139.309C250.421 141.229 251.791 143.486 252.676 145.946C253.56 148.406 253.941 151.019 253.796 153.629C253.651 156.24 252.983 158.794 251.832 161.141C250.681 163.488 249.069 165.58 247.094 167.292C242.473 171.427 237.518 173.192 232.231 172.589C227.122 172.074 222.399 169.641 219.016 165.779Z" fill="#407BFF"/>
<g opacity="0.5">
<path opacity="0.5" d="M405.157 110.866C407.055 106.358 410.2 102.486 414.224 99.705C418.953 96.3362 424.474 94.2506 430.249 93.6517C436.977 92.9278 443.778 93.9226 450.017 96.5432C455.91 98.7234 461.232 102.211 465.583 106.745C469.353 110.668 471.971 115.553 473.15 120.865C474.236 125.83 473.813 131.006 471.934 135.728C470.659 139.192 468.53 142.278 465.745 144.7C463.251 146.843 460.444 148.593 457.422 149.889C454.521 151.123 449.391 153.095 442.032 155.807C440.311 156.438 438.628 157.169 436.992 157.996C435.866 158.548 434.813 159.238 433.857 160.05C433.097 160.7 432.408 161.429 431.803 162.225C431.222 162.995 430.263 164.36 428.925 166.279C426.223 170.548 422.687 171.81 418.318 170.062C417.239 169.667 416.25 169.062 415.406 168.283C414.562 167.504 413.88 166.566 413.4 165.522C412.918 164.301 412.695 162.992 412.746 161.68C412.797 160.368 413.121 159.081 413.697 157.901C415.937 151.605 420.582 146.454 426.614 143.578C430.067 141.97 433.598 140.536 437.194 139.282C440.991 137.93 443.775 136.863 445.531 136.106C447.274 135.35 448.902 134.354 450.368 133.147C451.837 131.949 452.968 130.389 453.652 128.621C454.344 126.944 454.665 125.138 454.592 123.325C454.52 121.513 454.056 119.738 453.233 118.122C451.425 114.565 448.312 111.844 444.545 110.528C439.68 108.609 435.627 108.425 432.384 109.974C428.446 112.07 425.001 114.981 422.277 118.514C418.8 122.919 414.963 124.27 410.765 122.567C409.588 122.127 408.515 121.447 407.615 120.57C406.715 119.693 406.007 118.638 405.536 117.473C405.038 116.452 404.748 115.342 404.683 114.208C404.618 113.073 404.779 111.937 405.157 110.866ZM408.846 196.262C406.235 195.272 404.087 193.345 402.82 190.857C402.171 189.549 401.82 188.113 401.792 186.653C401.764 185.193 402.059 183.744 402.658 182.412C403.145 181.09 403.902 179.885 404.882 178.873C405.861 177.861 407.041 177.064 408.346 176.534C409.655 175.976 411.064 175.688 412.488 175.688C413.911 175.688 415.32 175.976 416.629 176.534C417.939 177.028 419.137 177.779 420.152 178.744C421.166 179.709 421.977 180.868 422.535 182.152C423.093 183.436 423.388 184.819 423.402 186.219C423.415 187.62 423.148 189.008 422.615 190.303C422.148 191.69 421.38 192.957 420.366 194.013C419.352 195.069 418.118 195.887 416.751 196.41C414.192 197.361 411.368 197.308 408.846 196.262Z" fill="#407BFF"/>
</g>
<g opacity="0.1">
<path opacity="0.1" d="M496.039 102.907C494.816 100.984 494.165 98.7542 494.16 96.4758C494.115 93.7763 494.777 91.1119 496.079 88.7469C497.582 85.9925 499.763 83.6672 502.416 81.9909C504.809 80.3064 507.554 79.1883 510.442 78.721C512.945 78.3153 515.511 78.6051 517.86 79.5587C520.06 80.4496 521.943 81.9792 523.265 83.9501C524.258 85.3538 524.88 86.9849 525.076 88.6929C525.231 90.213 525.158 91.7477 524.86 93.2464C524.562 94.6967 523.959 97.1829 523.049 100.705C522.844 101.534 522.682 102.373 522.563 103.218C522.405 104.259 522.488 105.322 522.806 106.326C522.954 106.758 523.225 107.488 523.63 108.515C523.877 108.936 524.037 109.401 524.103 109.884C524.168 110.368 524.137 110.859 524.012 111.33C523.886 111.802 523.668 112.243 523.371 112.63C523.073 113.016 522.702 113.34 522.279 113.582C521.399 114.199 520.311 114.442 519.252 114.258C518.655 114.123 518.093 113.865 517.602 113.499C517.111 113.134 516.702 112.669 516.401 112.136C515.45 110.788 514.779 109.263 514.428 107.65C514.148 106.252 514.116 104.816 514.334 103.407C514.626 101.659 515.009 99.9271 515.482 98.2188C515.969 96.3947 516.293 95.057 516.469 94.1652C516.639 93.2751 516.688 92.3662 516.617 91.4628C516.54 90.5814 516.238 89.7345 515.739 89.0036C515.278 88.2971 514.67 87.6984 513.956 87.2484C513.243 86.7983 512.441 86.5075 511.604 86.3958C509.747 86.1428 507.865 86.6279 506.362 87.747C505.509 88.2209 504.763 88.8667 504.172 89.6435C503.581 90.4203 503.158 91.3113 502.93 92.26C502.695 94.3248 502.902 96.4159 503.538 98.3945C504.308 100.894 503.808 102.718 502.065 103.894C501.586 104.227 501.044 104.458 500.472 104.572C499.9 104.686 499.311 104.681 498.741 104.556C498.203 104.476 497.686 104.29 497.222 104.006C496.758 103.723 496.355 103.349 496.039 102.907ZM529.751 124.067C528.68 124.8 527.376 125.112 526.089 124.946C525.41 124.849 524.761 124.601 524.19 124.22C523.619 123.838 523.142 123.334 522.792 122.743C522.415 122.208 522.153 121.6 522.022 120.958C521.892 120.316 521.897 119.654 522.036 119.014C522.167 118.364 522.427 117.747 522.8 117.199C523.174 116.651 523.654 116.184 524.211 115.825C524.746 115.452 525.351 115.192 525.99 115.059C526.629 114.927 527.288 114.925 527.927 115.055C528.569 115.173 529.18 115.423 529.722 115.788C530.263 116.153 530.724 116.625 531.075 117.176C531.483 117.723 531.765 118.352 531.903 119.02C532.041 119.688 532.03 120.377 531.872 121.041C531.569 122.279 530.812 123.36 529.751 124.067Z" fill="#407BFF"/>
</g>
<path d="M251.039 479.162L240.824 476.514L246.918 453.151L257.133 455.8L251.039 479.162Z" fill="#FFC3BD"/>
<path d="M240.716 473.812L252.12 477.419C252.215 477.443 252.304 477.485 252.382 477.544C252.461 477.602 252.526 477.676 252.575 477.76C252.624 477.845 252.656 477.938 252.668 478.035C252.681 478.132 252.674 478.231 252.647 478.325L250.242 487.175C250.073 487.639 249.732 488.021 249.289 488.24C248.846 488.459 248.335 488.499 247.864 488.351C243.918 486.999 242.094 486.216 237.054 484.621C233.96 483.648 226.501 481.446 222.191 480.095C217.881 478.744 219.489 474.69 221.367 474.947C230.042 475.852 235.082 475.122 238.689 473.866C239.34 473.625 240.053 473.606 240.716 473.812Z" fill="#263238"/>
<path opacity="0.2" d="M257.133 455.813L246.918 453.165L243.783 465.204L253.998 467.853L257.133 455.813Z" fill="black"/>
<path d="M282.873 216.908C282.873 216.908 264.172 305.776 259.2 334.868C253.795 366.729 241.918 457.949 241.918 457.949L259.281 464.259C259.281 464.259 286.454 367.526 290.575 336.894C299.209 306.952 321.085 216.908 321.085 216.908H282.873Z" fill="#407BFF"/>
<path opacity="0.3" d="M306.885 245.918C300.818 260.484 298.615 287.008 299.669 302.871C304.48 284.144 309.817 262.754 313.952 245.999C312.614 241.392 310.776 236.554 306.885 245.918Z" fill="black"/>
<path d="M258.931 466.312L240.311 460.935L241.014 453.057L263.173 459.286L258.931 466.312Z" fill="#263238"/>
<path d="M236.528 474.379C237.449 474.643 238.395 474.811 239.352 474.879C239.4 474.888 239.449 474.88 239.493 474.858C239.537 474.836 239.573 474.801 239.595 474.758C239.62 474.72 239.634 474.675 239.634 474.629C239.634 474.584 239.62 474.539 239.595 474.501C239.338 474.177 237.109 471.38 235.717 471.461C235.557 471.467 235.401 471.513 235.264 471.596C235.127 471.679 235.013 471.795 234.933 471.934C234.796 472.128 234.712 472.356 234.69 472.593C234.669 472.83 234.711 473.069 234.812 473.285C235.23 473.847 235.841 474.237 236.528 474.379ZM238.825 474.379C236.879 474.15 235.568 473.677 235.244 473.028C235.181 472.888 235.158 472.733 235.177 472.581C235.196 472.428 235.256 472.284 235.352 472.163C235.39 472.095 235.444 472.036 235.51 471.994C235.576 471.951 235.652 471.926 235.73 471.92C236.46 471.893 237.892 473.258 238.825 474.352V474.379Z" fill="#407BFF"/>
<path d="M239.297 474.879H239.419C239.459 474.873 239.496 474.858 239.529 474.834C239.562 474.811 239.589 474.78 239.608 474.744C239.608 474.622 240.851 471.879 240.148 470.609C240.052 470.447 239.923 470.307 239.77 470.197C239.616 470.088 239.441 470.012 239.256 469.974C239.053 469.916 238.837 469.925 238.639 470C238.442 470.076 238.274 470.214 238.162 470.393C237.554 471.393 238.378 473.906 239.189 474.798C239.215 474.836 239.253 474.864 239.297 474.879ZM239.297 470.474C239.39 470.502 239.476 470.549 239.551 470.612C239.625 470.675 239.686 470.752 239.729 470.839C239.974 471.955 239.836 473.121 239.338 474.149C238.702 473.149 238.216 471.285 238.621 470.636C238.621 470.515 238.824 470.38 239.175 470.447L239.297 470.474Z" fill="#407BFF"/>
<path d="M297.345 140.795C296.44 142.984 295.575 144.93 294.643 146.929C293.71 148.929 292.71 150.888 291.697 152.848C289.643 156.753 287.481 160.604 285.103 164.36C280.371 172.168 274.649 179.33 268.078 185.668L267.835 185.912C267.49 186.222 267.109 186.49 266.7 186.709C265.575 187.315 264.338 187.688 263.065 187.803C262.336 187.855 261.605 187.855 260.876 187.803C259.786 187.733 258.702 187.584 257.633 187.357C255.714 186.952 254.012 186.452 252.336 185.925C249.013 184.871 245.918 183.587 242.878 182.29C239.838 180.993 236.838 179.588 233.893 178.061C230.947 176.534 228.055 175.007 225.191 173.278C224.527 172.872 224.029 172.243 223.787 171.503C223.545 170.763 223.575 169.962 223.871 169.242C224.168 168.522 224.711 167.932 225.404 167.577C226.096 167.222 226.893 167.126 227.65 167.306C233.92 168.819 240.176 170.508 246.337 172.008C249.404 172.778 252.472 173.453 255.417 174.021C256.806 174.302 258.208 174.505 259.619 174.629C260.15 174.66 260.683 174.66 261.214 174.629C261.417 174.629 261.498 174.629 261.444 174.629C260.963 174.642 260.496 174.787 260.092 175.048L258.741 176.088C261.355 173.195 263.779 170.135 265.997 166.927C268.267 163.644 270.416 160.171 272.483 156.685C274.55 153.199 276.536 149.537 278.415 145.875C280.293 142.214 282.157 138.444 283.819 134.917L283.901 134.742C284.698 132.95 286.174 131.548 288.005 130.845C289.836 130.142 291.871 130.195 293.663 130.992C295.455 131.789 296.856 133.266 297.56 135.097C298.263 136.927 298.21 138.963 297.412 140.754L297.345 140.795Z" fill="#FFC3BD"/>
<path d="M295.264 126.499C286.562 126.742 280.59 136.187 274.888 147.956C279.258 155.512 285.522 161.798 293.061 166.197C293.061 166.197 315.924 125.918 295.264 126.499Z" fill="#E0E0E0"/>
<path d="M224.758 173.332L216.921 171.332L223.029 163.481C223.029 163.481 229.785 164.549 232.352 170.237L229.569 172.224C228.893 172.743 228.114 173.111 227.284 173.302C226.454 173.493 225.593 173.503 224.758 173.332Z" fill="#FFC3BD"/>
<path d="M215.016 163.306L216.529 161.954C217.149 161.412 217.939 161.105 218.762 161.088C219.585 161.071 220.388 161.344 221.029 161.86L223.029 163.468L216.921 171.318L214.422 167.427C214.008 166.783 213.84 166.012 213.949 165.255C214.058 164.498 214.437 163.806 215.016 163.306Z" fill="#FFC3BD"/>
<path d="M342.475 477.946H331.787L329.233 454.138H339.921L342.475 477.946Z" fill="#FFC3BD"/>
<path d="M330.854 476.757H342.867C343.065 476.746 343.26 476.813 343.409 476.945C343.558 477.076 343.65 477.261 343.664 477.46L344.245 486.594C344.234 487.085 344.032 487.552 343.681 487.896C343.329 488.239 342.858 488.432 342.367 488.431C338.191 488.35 336.192 488.121 330.908 488.121C327.666 488.121 318.748 488.445 314.221 488.445C309.695 488.445 309.857 484.175 311.762 483.797C320.288 482.054 325.99 479.662 329.017 477.392C329.543 476.984 330.189 476.761 330.854 476.757Z" fill="#263238"/>
<path opacity="0.2" d="M339.921 454.138H329.233L330.557 466.421H341.245L339.921 454.138Z" fill="black"/>
<path d="M303.763 216.908C303.763 216.908 306.127 306.249 307.816 335.692C309.708 367.932 325.72 463.448 325.72 463.448H345.312C345.312 463.448 341.015 366.715 337.772 335.084C339.124 300.439 340.015 216.881 340.015 216.881L303.763 216.908Z" fill="#407BFF"/>
<path d="M346.096 463.448H323.882L322.828 456.3L346.69 456.705L346.096 463.448Z" fill="#263238"/>
<path d="M327.071 478.54C328.032 478.519 328.987 478.397 329.922 478.176C329.968 478.167 330.01 478.144 330.041 478.11C330.073 478.076 330.093 478.033 330.098 477.986C330.111 477.941 330.108 477.893 330.091 477.849C330.074 477.805 330.043 477.768 330.003 477.743C329.665 477.527 326.639 475.527 325.328 476.027C325.182 476.081 325.052 476.172 324.95 476.29C324.848 476.408 324.779 476.55 324.747 476.703C324.662 476.934 324.647 477.185 324.702 477.425C324.757 477.664 324.881 477.883 325.058 478.054C325.649 478.451 326.363 478.624 327.071 478.54ZM329.233 477.838C327.314 478.203 325.909 478.135 325.409 477.662C325.306 477.549 325.235 477.41 325.204 477.261C325.174 477.111 325.184 476.956 325.233 476.811C325.246 476.736 325.278 476.666 325.325 476.607C325.372 476.548 325.434 476.502 325.504 476.473C326.206 476.203 327.99 477.068 329.233 477.838Z" fill="#407BFF"/>
<path d="M329.854 478.189H329.976C330.012 478.168 330.043 478.138 330.066 478.103C330.09 478.068 330.105 478.028 330.111 477.987C330.111 477.865 330.354 474.906 329.273 473.933C329.135 473.801 328.968 473.702 328.785 473.646C328.602 473.59 328.408 473.577 328.219 473.609C328.01 473.612 327.808 473.683 327.645 473.813C327.481 473.942 327.365 474.122 327.314 474.325C327.071 475.446 328.665 477.595 329.733 478.203L329.854 478.189ZM328.341 474.014C328.441 474.011 328.541 474.029 328.634 474.066C328.727 474.103 328.811 474.159 328.881 474.23C329.473 475.212 329.72 476.362 329.584 477.5C328.652 476.744 327.584 475.109 327.746 474.379C327.746 474.23 327.868 474.068 328.233 474.028L328.341 474.014Z" fill="#407BFF"/>
<path d="M287.373 133.377C287.949 131.628 288.986 130.066 290.375 128.856C291.763 127.645 293.452 126.831 295.264 126.499C297.904 125.884 300.58 125.432 303.276 125.148C311.377 124.701 319.497 124.701 327.598 125.148C331.841 125.337 336.164 125.837 339.61 126.324H339.732C340.617 126.427 341.472 126.709 342.245 127.153C343.017 127.597 343.692 128.193 344.226 128.906C344.761 129.619 345.145 130.434 345.355 131.3C345.565 132.166 345.596 133.066 345.447 133.944C342.75 147.714 340.985 161.649 340.164 175.656C339.326 196.005 340.461 211.976 340.056 216.881H282.873C279.401 167.252 283.887 144.687 287.373 133.377Z" fill="#E0E0E0"/>
<path d="M331.476 94.8676C332.473 95.5879 333.267 96.5549 333.778 97.6738C334.29 98.7928 334.503 100.025 334.395 101.251C334.287 102.477 333.864 103.654 333.165 104.666C332.466 105.679 331.516 106.493 330.408 107.028C332.719 110.852 326.571 117.608 320.383 113.366C314.194 109.123 322.936 91.2599 331.476 94.8676Z" fill="#263238"/>
<path d="M305.884 90.76C305.035 90.7851 304.194 90.5893 303.444 90.1918C302.693 89.7942 302.058 89.2086 301.602 88.4921C301.146 87.7757 300.883 86.953 300.841 86.1047C300.798 85.2564 300.976 84.4115 301.358 83.6527C298.48 82.5312 298.993 76.2481 304.182 75.9779C309.37 75.7076 312.046 89.1791 305.884 90.76Z" fill="#263238"/>
<path d="M304.195 130.458C303.808 130.103 303.521 129.654 303.36 129.154C303.199 128.654 303.172 128.121 303.279 127.607C303.387 127.094 303.626 126.617 303.974 126.223C304.322 125.83 304.766 125.534 305.263 125.364C310.478 123.446 311.424 119.662 311.005 115.541C310.885 114.382 310.696 113.232 310.438 112.095L319.288 105.029L325.801 99.8401C324.179 106.596 322.369 118.365 325.801 124.324C326.185 124.947 326.334 125.688 326.22 126.412C326.106 127.135 325.737 127.794 325.179 128.269C322.936 130.256 318.342 132.823 310.775 132.418C307.303 132.242 305.371 131.445 304.195 130.458Z" fill="#FFC3BD"/>
<path d="M284.441 133.62C285.085 131.674 286.221 129.928 287.739 128.551C289.256 127.173 291.104 126.21 293.102 125.756C295.667 125.349 298.251 125.078 300.844 124.945C301.115 124.906 301.391 124.935 301.648 125.03C301.905 125.124 302.134 125.281 302.315 125.486C302.496 125.691 302.623 125.938 302.685 126.205C302.746 126.471 302.741 126.749 302.669 127.013C298.142 143.821 291.683 177.453 293.683 219.11C293.692 219.37 293.649 219.628 293.554 219.87C293.46 220.112 293.318 220.331 293.136 220.516C292.953 220.701 292.735 220.846 292.495 220.944C292.255 221.041 291.997 221.089 291.737 221.083H280.387C279.895 221.091 279.418 220.911 279.054 220.58C278.69 220.248 278.466 219.79 278.428 219.299C275.01 168.4 281.049 143.038 284.441 133.62Z" fill="#263238"/>
<path d="M339.3 125.31C335.666 124.79 332.009 124.456 328.341 124.31C327.678 124.262 327.018 124.45 326.479 124.84C325.94 125.231 325.556 125.799 325.396 126.445C321.194 144.957 317.451 186.087 317.289 219.178C317.294 219.43 317.349 219.678 317.45 219.909C317.551 220.14 317.697 220.349 317.879 220.523C318.061 220.697 318.276 220.834 318.51 220.926C318.745 221.017 318.996 221.061 319.248 221.056H339.516C340.018 221.067 340.504 220.881 340.871 220.537C341.237 220.194 341.454 219.72 341.475 219.218C341.61 212.557 340.691 196.951 341.475 177.574C342.224 163.767 343.958 150.031 346.664 136.471C347.366 132.674 343.313 125.878 339.3 125.31Z" fill="#263238"/>
<path d="M346.42 131.188C350.758 137.728 354.703 144.281 358.433 151.158C360.27 154.604 362.081 158.104 363.716 161.779C364.527 163.617 365.324 165.495 366.067 167.481C366.886 169.63 367.519 171.845 367.959 174.102C368.292 175.747 368.365 177.434 368.175 179.101C367.954 180.451 367.606 181.776 367.134 183.06C366.363 185.153 365.419 187.178 364.31 189.114C362.321 192.624 360.105 196 357.676 199.221C353.002 205.458 347.891 211.355 342.38 216.867C341.744 217.505 340.895 217.887 339.995 217.94C339.095 217.993 338.207 217.714 337.5 217.155C336.793 216.596 336.316 215.797 336.159 214.91C336.003 214.022 336.178 213.108 336.651 212.341V212.26C340.583 205.923 344.556 199.464 348.15 193.059C349.934 189.87 351.636 186.627 353.001 183.493C354.365 180.358 355.365 176.926 354.663 176.831C354.232 175.394 353.708 173.985 353.095 172.616C352.42 171.075 351.65 169.481 350.839 167.9C349.19 164.724 347.42 161.495 345.569 158.32C341.867 151.942 337.921 145.51 334.016 139.281V139.2C332.954 137.555 332.588 135.556 333 133.641C333.412 131.727 334.567 130.055 336.212 128.992C337.857 127.929 339.857 127.564 341.771 127.976C343.685 128.387 345.358 129.543 346.42 131.188Z" fill="#FFC3BD"/>
<path d="M338.015 125.134C346.717 124.972 351.325 132.336 357.027 144.051C350.568 156.009 338.245 161.184 338.245 161.184C338.245 161.184 320.909 125.431 338.015 125.134Z" fill="#E0E0E0"/>
<path d="M333.557 211.99L328.544 213.584L337.827 220.637C337.827 220.637 345.42 216.692 343.042 213.111L341.502 212.422C338.995 211.316 336.17 211.162 333.557 211.99Z" fill="#FFC3BD"/>
<path d="M325.734 219.772L331.368 225.434C331.551 225.612 331.768 225.749 332.006 225.839C332.244 225.928 332.498 225.967 332.752 225.953C333.006 225.939 333.255 225.873 333.482 225.758C333.709 225.643 333.909 225.482 334.071 225.285L337.814 220.637L328.531 213.584L325.639 217.543C325.373 217.859 325.234 218.263 325.252 218.676C325.269 219.089 325.441 219.48 325.734 219.772Z" fill="#FFC3BD"/>
<path opacity="0.2" d="M310.438 112.15C310.696 113.286 310.885 114.436 311.005 115.595C314.356 116.446 319.112 112.609 319.558 109.353C319.615 107.924 319.525 106.493 319.288 105.083L310.438 112.15Z" fill="black"/>
<path d="M331.354 90.2463C329.071 100.218 328.26 106.163 322.126 110.609C320.119 112.077 317.759 112.986 315.286 113.245C312.814 113.504 310.317 113.103 308.049 112.082C305.782 111.062 303.826 109.459 302.38 107.437C300.934 105.414 300.05 103.045 299.817 100.569C299.034 91.2191 302.898 76.4776 313.816 73.8562C324.734 71.2349 333.638 80.2609 331.354 90.2463Z" fill="#FFC3BD"/>
<path d="M326.734 98.9752C323.842 99.1238 320.761 88.9223 327.139 84.0039C326.125 84.5579 323.356 83.5445 323.842 81.6393C321.964 82.423 313.748 82.0852 315.735 78.7477C311.56 79.8287 302.452 78.0181 301.48 74.0321C300.507 70.046 305.209 69.9109 305.939 70.4379C303.871 67.5463 303.912 63.3035 309.398 61.7632C314.883 60.2228 323.153 68.1543 323.153 68.1543C322.288 66.06 325.328 64.371 328.477 66.1681C331.625 67.9652 333.098 73.0727 333.098 73.0727C333.098 71.5323 340.448 73.5997 336.962 80.0584C340.57 81.4096 342.218 83.3283 341.989 86.6658C341.759 90.0032 339.475 90.1924 339.475 90.1924C339.959 91.394 340.026 92.7228 339.666 93.9669C339.306 95.211 338.539 96.2987 337.489 97.0565C333.746 100.07 330.476 96.5295 326.734 98.9752Z" fill="#263238"/>
<path d="M332.462 99.7455C331.191 101.605 329.314 102.966 327.152 103.596C324.368 104.34 323.422 101.853 324.557 99.2591C325.584 96.9215 328.26 93.7057 330.881 94.111C333.502 94.5164 334.029 97.4215 332.462 99.7455Z" fill="#FFC3BD"/>
<path d="M314.829 89.8412C314.694 90.6519 314.127 91.2599 313.573 91.1924C313.019 91.1248 312.667 90.3952 312.802 89.5709C312.938 88.7467 313.505 88.2197 314.059 88.2197C314.613 88.2197 314.897 89.0169 314.829 89.8412Z" fill="#263238"/>
<path d="M304.939 88.0441C304.804 88.8683 304.25 89.4763 303.696 89.3953C303.142 89.3142 302.79 88.598 302.925 87.7738C303.061 86.9496 303.615 86.4226 304.169 86.4226C304.723 86.4226 305.074 87.2333 304.939 88.0441Z" fill="#263238"/>
<path d="M308.843 89.8818C307.404 92.2597 305.644 94.4284 303.614 96.3271C304.14 96.8211 304.765 97.1973 305.448 97.4303C306.131 97.6633 306.855 97.7479 307.573 97.6783L308.843 89.8818Z" fill="#ED847E"/>
<path d="M309.33 101.705C310.313 101.816 311.308 101.729 312.257 101.451C313.206 101.173 314.089 100.708 314.856 100.083C314.901 100.036 314.926 99.9728 314.926 99.9075C314.926 99.8423 314.901 99.7794 314.856 99.7319C314.807 99.69 314.745 99.667 314.681 99.667C314.616 99.667 314.554 99.69 314.505 99.7319C313.662 100.401 312.678 100.87 311.627 101.104C310.576 101.338 309.486 101.331 308.438 101.083C308.406 101.075 308.373 101.074 308.34 101.079C308.308 101.084 308.277 101.096 308.249 101.114C308.221 101.132 308.197 101.155 308.179 101.182C308.16 101.209 308.147 101.24 308.141 101.272C308.133 101.303 308.132 101.336 308.137 101.368C308.143 101.399 308.155 101.429 308.172 101.456C308.19 101.483 308.213 101.506 308.241 101.523C308.268 101.54 308.298 101.551 308.33 101.556C308.659 101.63 308.993 101.68 309.33 101.705Z" fill="#263238"/>
<path d="M315.235 84.22C315.154 84.2417 315.079 84.2835 315.019 84.3416C314.972 84.3858 314.934 84.4392 314.908 84.4984C314.883 84.5577 314.87 84.6216 314.87 84.6861C314.87 84.7507 314.883 84.8146 314.908 84.8738C314.934 84.9331 314.972 84.9865 315.019 85.0307C315.545 85.619 316.205 86.0713 316.944 86.349C317.683 86.6266 318.478 86.7214 319.261 86.6251C319.326 86.6187 319.389 86.5989 319.446 86.567C319.503 86.5351 319.553 86.4917 319.592 86.4397C319.631 86.3877 319.659 86.3281 319.675 86.2646C319.69 86.2012 319.692 86.1353 319.68 86.0711C319.669 86.0063 319.645 85.9444 319.609 85.8889C319.574 85.8334 319.528 85.7854 319.474 85.7478C319.42 85.7101 319.359 85.6835 319.295 85.6694C319.23 85.6553 319.164 85.6541 319.099 85.6658C318.48 85.7204 317.856 85.6263 317.28 85.3913C316.704 85.1563 316.193 84.7871 315.789 84.3146C315.714 84.2495 315.623 84.2063 315.525 84.1896C315.427 84.1729 315.327 84.1834 315.235 84.22Z" fill="#263238"/>
<path d="M302.141 81.7744C302.216 81.8075 302.296 81.8247 302.378 81.8247C302.459 81.8247 302.54 81.8075 302.614 81.7744C303.191 81.4867 303.824 81.3291 304.468 81.3128C305.113 81.2964 305.753 81.4217 306.343 81.6798C306.459 81.7451 306.595 81.7633 306.723 81.7306C306.852 81.6978 306.963 81.6167 307.033 81.5041C307.091 81.3869 307.103 81.2516 307.066 81.126C307.028 81.0004 306.944 80.8939 306.83 80.8285C306.1 80.4786 305.301 80.2969 304.492 80.2969C303.683 80.2969 302.884 80.4786 302.155 80.8285C302.096 80.8542 302.043 80.8921 301.999 80.9397C301.955 80.9872 301.922 81.0434 301.902 81.1046C301.882 81.1658 301.874 81.2306 301.881 81.2947C301.887 81.3589 301.907 81.4211 301.939 81.4771C301.969 81.5969 302.041 81.7021 302.141 81.7744Z" fill="#263238"/>
</svg>
