<svg width="74" height="68" viewBox="0 0 74 68" fill="none" xmlns="http://www.w3.org/2000/svg">
<path d="M0.000135282 61.7438V7.878C-0.00557559 6.98748 0.169608 6.10924 0.509868 5.32257C1.44104 3.19551 3.77297 -0.182171 8.53717 2.88533C11.5514 4.85483 17.6441 11.1031 20.554 11.2114C23.2271 11.3099 32.4826 0 37.4756 0C41.2685 0 50.7206 11.4576 53.7831 11.5364C56.6649 11.6053 62.7134 4.15073 66.0086 2.45203C69.9099 0.448067 72.0733 2.41756 73.1369 4.14088C73.7053 5.08181 74.0082 6.22438 73.9998 7.39548V52.694C74.0035 53.6685 73.7927 54.6262 73.3898 55.4661C72.7395 56.8201 71.5435 58.6172 69.7373 58.8388C66.8876 59.1884 26.3899 58.9028 19.4182 58.8388C18.7605 58.8329 18.1168 59.0715 17.5719 59.5232C15.6935 61.0791 11.1501 64.8162 9.35997 66.1851C3.99372 70.2373 1.48117 66.5592 0.529937 64.2845C0.189518 63.5021 0.00778866 62.6306 0.000135282 61.7438Z" fill="url(#paint0_linear_231_1409)"/>
<path d="M7.40124 13.6437C7.4005 13.5342 7.4238 13.4264 7.4687 13.3317C7.51361 13.237 7.57845 13.1589 7.65644 13.1055C7.73443 13.0521 7.82269 13.0255 7.91196 13.0283C8.00123 13.0312 8.08823 13.0635 8.16383 13.1218L17.9491 20.5074C18.6408 20.9877 19.422 21.2402 20.2168 21.2402C21.0116 21.2402 21.7929 20.9877 22.4845 20.5074L36.5082 10.01C36.6633 9.89785 36.84 9.83868 37.02 9.83868C37.2 9.83868 37.3767 9.89785 37.5317 10.01L51.8123 20.6256C52.4109 21.0362 53.0852 21.2517 53.771 21.2517C54.4567 21.2517 55.131 21.0362 55.7296 20.6256L65.8801 12.9003C65.9562 12.8446 66.0429 12.8147 66.1314 12.8135C66.2199 12.8123 66.3071 12.8398 66.3842 12.8933C66.4612 12.9468 66.5254 13.0244 66.5701 13.1181C66.6148 13.2119 66.6385 13.3185 66.6387 13.4271V46.6082C66.6387 47.3274 66.4064 48.0172 65.9926 48.5266C65.5789 49.036 65.0174 49.3236 64.4312 49.3262L17.6481 49.597C16.8694 49.6003 16.1093 49.8883 15.4647 50.4241L8.85418 55.9092C8.70281 56.0229 8.52949 56.085 8.35204 56.0893C8.17459 56.0936 7.99941 56.0398 7.84452 55.9335C7.68962 55.8272 7.56059 55.6723 7.47069 55.4845C7.38079 55.2968 7.33327 55.0831 7.33301 54.8654L7.40124 13.6437Z" fill="#202938"/>
<path d="M21.2847 38.7105C23.4016 38.7105 25.1177 36.6053 25.1177 34.0084C25.1177 31.4114 23.4016 29.3062 21.2847 29.3062C19.1678 29.3062 17.4517 31.4114 17.4517 34.0084C17.4517 36.6053 19.1678 38.7105 21.2847 38.7105Z" fill="white"/>
<path d="M38.0332 38.7105C40.1502 38.7105 41.8663 36.6053 41.8663 34.0084C41.8663 31.4114 40.1502 29.3062 38.0332 29.3062C35.9163 29.3062 34.2002 31.4114 34.2002 34.0084C34.2002 36.6053 35.9163 38.7105 38.0332 38.7105Z" fill="white"/>
<path d="M54.606 38.7105C56.7229 38.7105 58.439 36.6053 58.439 34.0084C58.439 31.4114 56.7229 29.3062 54.606 29.3062C52.4891 29.3062 50.7729 31.4114 50.7729 34.0084C50.7729 36.6053 52.4891 38.7105 54.606 38.7105Z" fill="white"/>
<defs>
<linearGradient id="paint0_linear_231_1409" x1="36.9899" y1="0.216645" x2="36.9899" y2="68.2136" gradientUnits="userSpaceOnUse">
<stop stop-color="#FDDC04"/>
<stop offset="1" stop-color="#F6B434"/>
</linearGradient>
</defs>
</svg>
