<svg id="Camada_1" data-name="Camada 1" xmlns="http://www.w3.org/2000/svg" xmlns:xlink="http://www.w3.org/1999/xlink" viewBox="0 0 582.42 125.92"><defs><style>.cls-1{font-size:69.69px;font-family:Poppins-SemiBold, Poppins;font-weight:600;}.cls-1,.cls-2,.cls-5{fill:#fff;}.cls-2{font-size:99.84px;font-family:Slenco-Black, Slenco;font-weight:800;}.cls-3{fill:url(#Gradiente_sem_nome_17);}.cls-4{fill:#202938;}</style><linearGradient id="Gradiente_sem_nome_17" x1="54.44" y1="22" x2="54.44" y2="103.57" gradientUnits="userSpaceOnUse"><stop offset="0" stop-color="#fddc04"/><stop offset="1" stop-color="#f6b434"/></linearGradient></defs><text class="cls-1" transform="translate(122.98 84.59)">Imperial</text><text class="cls-2" transform="translate(417.49 84.86)">Hub</text><path class="cls-3" d="M0,95.81V31.19a6.54,6.54,0,0,1,.75-3.07c1.37-2.55,4.81-6.6,11.79-2.92C17,27.53,26,35.06,30.23,35.19c3.93.12,17.55-13.45,24.9-13.45,5.58,0,19.51,13.74,24,13.84,4.24.08,13.14-8.87,18-10.9,5.75-2.41,8.93,0,10.49,2a6.44,6.44,0,0,1,1.27,3.91V84.94a6.53,6.53,0,0,1-.89,3.32c-1,1.63-2.72,3.78-5.38,4-4.19.42-63.82.07-74,0a4.78,4.78,0,0,0-2.72.82c-2.77,1.87-9.43,6.35-12.09,8-7.9,4.86-11.59.45-13-2.28A6.56,6.56,0,0,1,0,95.81Z"/><path class="cls-4" d="M10.9,39.1A.73.73,0,0,1,12,38.48l14.4,8.87a6.75,6.75,0,0,0,6.67,0L53.73,34.77a1.49,1.49,0,0,1,1.51,0l21,12.74a5.9,5.9,0,0,0,5.77,0L97,38.21a.73.73,0,0,1,1.11.63V78.65a3.26,3.26,0,0,1-3.24,3.26L26,82.23a5.84,5.84,0,0,0-3.21,1L13,89.81a1.47,1.47,0,0,1-2.24-1.25Z"/><circle class="cls-5" cx="31.33" cy="62.54" r="5.64"/><circle class="cls-5" cx="55.98" cy="62.54" r="5.64"/><circle class="cls-5" cx="80.37" cy="62.54" r="5.64"/></svg>