<svg width="667" height="631" viewBox="0 0 667 631" fill="none" xmlns="http://www.w3.org/2000/svg">
<path d="M92.427 534.947L76.9096 524.262C76.9096 524.262 67.9466 537.297 54.254 528.218C51.5837 526.515 49.5095 524.023 48.3193 521.088C47.1292 518.153 46.882 514.921 47.612 511.839C48.1909 509.241 49.376 506.817 51.0708 504.764C52.7655 502.712 54.9217 501.089 57.3633 500.029C62.9688 497.504 71.4501 497.533 80.6466 506.569L104.704 471.535L89.3614 460.981L75.2747 481.417C75.2747 481.417 49.9331 472.177 33.6128 495.884C18.0079 518.568 34.7223 537.837 43.4371 543.822C50.0936 548.508 73.8149 562.507 92.427 534.947Z" fill="#EBEBEB"/>
<path d="M94.0643 453.702L109.626 464.409L119.63 449.87L104.068 439.162L94.0643 453.702Z" fill="#EBEBEB"/>
<path d="M158.497 577.85L166.73 575.675C166.485 574.738 166.43 573.762 166.566 572.804C166.702 571.845 167.028 570.923 167.523 570.092C168.019 569.261 168.676 568.536 169.454 567.961C170.233 567.385 171.118 566.971 172.058 566.741C173.43 566.324 174.897 566.346 176.256 566.804C177.614 567.262 178.796 568.133 179.634 569.295C180.355 570.258 180.838 571.377 181.044 572.562C181.249 573.747 181.172 574.964 180.817 576.113C180.029 578.784 177.518 581.689 171.708 582.171L176.598 600.753L184.744 598.608L181.824 587.718C184.904 585.85 187.286 583.024 188.604 579.672C189.923 576.321 190.105 572.629 189.123 569.164C185.941 557.121 174.394 557.165 169.781 558.391C166.321 559.325 154.512 563.354 158.497 577.85Z" fill="#EBEBEB"/>
<path d="M185.891 602.38L177.62 604.562L179.657 612.283L187.928 610.1L185.891 602.38Z" fill="#EBEBEB"/>
<path d="M295.335 57.7047C299.5 55.1671 303.988 53.203 308.678 51.8656L311.422 38.7277L333.742 38.3335L336.953 51.4715C341.688 52.6312 346.244 54.4233 350.5 56.7996L361.784 49.3986L377.842 64.9013L370.849 76.4335C373.378 80.6079 375.341 85.0994 376.688 89.7904L389.899 92.5348L390.279 114.855L377.141 118.066C375.975 122.798 374.183 127.354 371.813 131.613L379.199 142.897L363.696 158.954L352.164 151.962C347.995 154.5 343.502 156.464 338.807 157.801L336.063 171.027L313.743 171.406L310.532 158.268C305.795 157.115 301.238 155.322 296.985 152.94L285.701 160.341L269.643 144.838L276.636 133.306C274.098 129.136 272.134 124.644 270.797 119.949L257.659 117.205L257.265 94.885L270.403 91.6735C271.541 86.9112 273.319 82.3248 275.687 78.0393L268.286 66.7552L283.789 50.6978L295.335 57.7047ZM307.233 87.4402C303.949 90.8513 301.75 95.1595 300.915 99.8201C300.08 104.481 300.645 109.284 302.54 113.623C304.435 117.963 307.573 121.643 311.559 124.198C315.546 126.753 320.2 128.069 324.934 127.979C329.668 127.89 334.269 126.398 338.155 123.693C342.041 120.989 345.038 117.192 346.767 112.784C348.496 108.376 348.879 103.555 347.867 98.9292C346.856 94.3037 344.495 90.082 341.085 86.7979C336.509 82.3973 330.373 79.9932 324.026 80.1136C317.678 80.2341 311.638 82.8692 307.233 87.4402Z" fill="#F5F5F5"/>
<path d="M201.91 11.1672C204.316 9.72239 206.903 8.6032 209.603 7.83896L211.179 0.218962L224.04 0L225.894 7.54701C228.618 8.21325 231.241 9.24441 233.689 10.6125L240.185 6.34999L249.382 15.2692L245.353 21.9111C246.805 24.3147 247.93 26.902 248.695 29.6041L256.301 31.1807L256.52 44.0412L248.973 45.9243C248.309 48.6497 247.278 51.2721 245.907 53.7195L250.17 60.2155L241.236 69.4704L234.594 65.4415C232.191 66.8943 229.603 68.0186 226.901 68.7843L225.266 76.3751L212.406 76.6087L210.668 69.0617C207.945 68.3838 205.324 67.3481 202.873 65.9816L196.377 70.2441L187.122 61.3103L191.093 54.683C189.638 52.2859 188.513 49.703 187.75 47.0046L180.145 45.4134L179.911 32.5529L187.473 30.7135C188.136 27.9835 189.168 25.3563 190.538 22.9038L186.276 16.4078L195.21 7.16747L201.91 11.1672ZM208.756 28.3049C206.851 30.2645 205.571 32.7458 205.079 35.434C204.586 38.1221 204.903 40.8961 205.989 43.4038C207.076 45.9116 208.882 48.0401 211.18 49.5195C213.478 50.9989 216.164 51.7623 218.896 51.7131C221.629 51.6638 224.285 50.804 226.528 49.2428C228.771 47.6815 230.5 45.4892 231.495 42.9439C232.49 40.3986 232.707 37.6151 232.118 34.9464C231.529 32.2777 230.16 29.8442 228.186 27.9546C225.553 25.4199 222.023 24.0332 218.369 24.0989C214.716 24.1645 211.237 25.6773 208.698 28.3049H208.756Z" fill="#EBEBEB"/>
<path d="M612.207 249.869C614.607 248.419 617.189 247.295 619.885 246.526L621.476 238.92L634.322 238.701L636.176 246.248C638.906 246.912 641.534 247.943 643.986 249.314L650.482 245.051L659.722 253.985L655.693 260.627C657.146 263.031 658.271 265.618 659.036 268.32L666.656 269.897L666.875 282.757L659.328 284.611C658.649 287.332 657.619 289.952 656.263 292.406L660.511 298.902L651.591 308.157L644.95 304.128C642.546 305.581 639.959 306.705 637.257 307.471L635.665 315.077L622.819 315.31L620.966 307.749C618.24 307.085 615.618 306.054 613.17 304.683L606.66 308.946L597.419 300.012L601.448 293.37C599.993 290.968 598.869 288.38 598.106 285.677L590.5 284.1L590.267 271.24L597.814 269.386C598.493 266.665 599.523 264.045 600.879 261.591L596.631 255.095L605.55 245.84L612.207 249.869ZM619.053 266.992C617.157 268.954 615.885 271.434 615.399 274.119C614.912 276.804 615.233 279.573 616.32 282.075C617.407 284.578 619.212 286.702 621.507 288.178C623.801 289.655 626.482 290.418 629.21 290.371C631.938 290.324 634.591 289.469 636.833 287.915C639.075 286.36 640.806 284.175 641.807 281.636C642.807 279.098 643.032 276.32 642.453 273.653C641.875 270.987 640.518 268.552 638.556 266.656C635.923 264.119 632.391 262.729 628.735 262.792C625.079 262.855 621.597 264.365 619.053 266.992Z" fill="#EBEBEB"/>
<path d="M646.819 630.285C646.819 630.504 508.389 630.664 337.683 630.664C166.978 630.664 28.5186 630.504 28.5186 630.285C28.5186 630.066 166.905 629.905 337.683 629.905C508.462 629.905 646.819 630.08 646.819 630.285Z" fill="#263238"/>
<path d="M579.494 629.219L372.206 629.102C360.233 629.094 348.752 624.333 340.289 615.863C331.825 607.394 327.07 595.91 327.07 583.937L327.172 64.259C327.2 52.275 331.979 40.791 340.463 32.3265C348.946 23.862 360.441 19.1084 372.425 19.1084L579.713 19.2398C591.686 19.2475 603.167 24.0094 611.63 32.4787C620.094 40.948 624.849 52.4315 624.849 64.405L624.746 584.083C624.747 590.02 623.575 595.899 621.3 601.383C619.024 606.867 615.689 611.847 611.485 616.04C607.282 620.233 602.292 623.555 596.802 625.817C591.313 628.078 585.431 629.234 579.494 629.219Z" fill="#455A64"/>
<path d="M579.42 37.5599H539.233C536.583 37.6211 534.066 38.7318 532.235 40.6478C530.404 42.5639 529.408 45.1285 529.467 47.7783V55.0771C529.526 57.7268 528.53 60.2915 526.699 62.2075C524.868 64.1236 522.351 65.2342 519.701 65.2955H441.355C438.708 65.2304 436.195 64.1181 434.367 62.2025C432.539 60.2868 431.545 57.7243 431.604 55.0771V47.7783C431.663 45.1285 430.667 42.5639 428.836 40.6478C427.005 38.7318 424.488 37.6211 421.838 37.5599H372.527C364.157 37.5521 356.125 40.8639 350.192 46.7691C344.259 52.6744 340.91 60.6911 340.88 69.0617L340.777 576.361C340.793 584.738 344.13 592.767 350.058 598.686C355.985 604.605 364.019 607.932 372.396 607.935L579.289 608.052C583.443 608.054 587.557 607.238 591.396 605.65C595.234 604.062 598.723 601.734 601.661 598.797C604.6 595.861 606.932 592.375 608.523 588.538C610.115 584.701 610.935 580.588 610.937 576.434L611.024 69.1347C611.013 60.759 607.678 52.7302 601.753 46.8104C595.828 40.8907 587.796 37.5637 579.42 37.5599Z" fill="white"/>
<path d="M611.01 144.181V68.6092C610.861 60.3275 607.468 52.435 601.561 46.6288C595.654 40.8225 587.704 37.5662 579.421 37.5599H539.233C537.921 37.5883 536.627 37.8753 535.425 38.4045C534.224 38.9336 533.138 39.6945 532.231 40.6437C531.324 41.5928 530.613 42.7115 530.139 43.9357C529.665 45.16 529.437 46.4657 529.468 47.7783V55.0771C529.526 57.7268 528.531 60.2915 526.699 62.2075C524.868 64.1236 522.351 65.2342 519.702 65.2955H441.356C438.709 65.2304 436.195 64.1181 434.367 62.2025C432.539 60.2868 431.546 57.7243 431.605 55.0771V47.7783C431.663 45.1285 430.668 42.5639 428.836 40.6478C427.005 38.7318 424.488 37.6211 421.839 37.5599H372.528C364.157 37.5521 356.125 40.8639 350.192 46.7691C344.26 52.6744 340.911 60.6911 340.88 69.0617V144.415H611.01V144.181Z" fill="#EBEBEB"/>
<path d="M395.971 246.686C414.054 246.686 428.714 232.06 428.714 214.017C428.714 195.974 414.054 181.347 395.971 181.347C377.888 181.347 363.229 195.974 363.229 214.017C363.229 232.06 377.888 246.686 395.971 246.686Z" fill="#E0E0E0"/>
<path d="M380.673 222.191L389.256 221.462L410.189 224.994L412.656 240.745L412.306 242.584C407.591 245.246 402.292 246.703 396.878 246.828C391.465 246.953 386.104 245.741 381.271 243.3L380.673 222.191Z" fill="#455A64"/>
<path d="M405.708 224.746C407.784 224.443 409.903 224.73 411.824 225.574C413.744 226.418 415.388 227.785 416.569 229.52C417.987 231.5 419.289 233.562 420.466 235.694C417.05 239.402 414.277 242.22 409.547 243.869L405.708 224.746Z" fill="#455A64"/>
<path d="M380.673 222.191C380.673 222.191 375.009 222.892 372.82 227.724C370.63 232.556 370.119 234.059 370.119 234.059C373.039 237.592 376.776 241.767 381.345 243.329C381.345 243.329 382.381 231.154 382.513 227.724C382.673 224.016 382.819 222.089 380.673 222.191Z" fill="#455A64"/>
<path d="M385.841 191.244C387.267 189.417 389.086 187.933 391.163 186.902C393.24 185.871 395.522 185.32 397.84 185.289C399.833 185.288 401.811 185.644 403.679 186.34C405.646 186.805 407.384 187.954 408.584 189.58C410.072 191.493 411.047 193.754 411.416 196.149C411.758 198.6 411.876 201.078 411.766 203.55C411.646 206.04 410.843 208.449 409.445 210.513L403.153 211.594C399.684 211.87 396.194 211.684 392.774 211.039C389.317 210.375 386.263 208.37 384.279 205.463C381.753 201.361 382.804 194.981 385.841 191.244Z" fill="#263238"/>
<path d="M379.768 209.418C379.832 208.707 380.057 208.019 380.427 207.407C380.796 206.795 381.299 206.275 381.899 205.886C382.513 205.517 383.228 205.352 383.941 205.415C384.655 205.478 385.33 205.765 385.87 206.236L386.862 207.404C387.628 207.758 388.265 208.342 388.683 209.074C389.102 209.807 389.282 210.652 389.198 211.491C389.089 212.332 388.739 213.122 388.189 213.768C387.64 214.413 386.915 214.885 386.103 215.126C385.291 215.356 384.434 215.374 383.613 215.177C382.793 214.98 382.036 214.576 381.417 214.002C380.81 213.415 380.345 212.697 380.059 211.902C379.773 211.108 379.674 210.258 379.768 209.418Z" fill="#263238"/>
<path d="M381.008 213.71C380.772 213.341 380.655 212.908 380.672 212.469C380.883 211.407 381.389 210.425 382.132 209.637C382.837 208.81 383.694 208.126 384.658 207.623C385.388 207.229 385.898 207.083 385.884 207.039C385.418 207.073 384.965 207.208 384.555 207.433C383.526 207.891 382.617 208.58 381.899 209.448C381.496 209.888 381.152 210.378 380.877 210.907C380.638 211.359 380.498 211.857 380.468 212.367C380.462 212.718 380.558 213.063 380.745 213.36C380.877 213.652 381.008 213.798 381.008 213.71Z" fill="#455A64"/>
<path d="M403.095 223.622V217.783C403.095 217.783 408.218 217.214 409.649 210.645C410.322 206.3 410.585 201.901 410.437 197.507C410.437 193.522 407.007 188.091 402.073 188.077L399.883 187.814L391.489 191.142C390.906 191.174 390.356 191.422 389.946 191.838C389.536 192.253 389.295 192.807 389.271 193.39L389.022 221.432L392.862 226.819C393.565 227.77 394.548 228.478 395.673 228.842C396.798 229.206 398.009 229.209 399.136 228.85C400.263 228.491 401.25 227.788 401.957 226.84C402.664 225.892 403.057 224.746 403.08 223.564L403.095 223.622Z" fill="#FFBE9D"/>
<path d="M399.752 209.127C399.798 208.789 399.97 208.481 400.234 208.265C400.474 208.064 400.773 207.945 401.086 207.927C401.398 207.909 401.709 207.991 401.971 208.163C402.239 208.372 402.448 208.648 402.576 208.963C402.704 209.278 402.747 209.622 402.701 209.959C402.555 210.162 402.367 210.332 402.151 210.457C401.935 210.583 401.694 210.662 401.446 210.688H401.212C401.018 210.693 400.826 210.66 400.645 210.59C400.465 210.52 400.3 210.414 400.161 210.28C400.013 210.129 399.901 209.947 399.83 209.748C399.759 209.549 399.733 209.337 399.752 209.127Z" fill="#EB996E"/>
<path d="M407.387 202.12C407.379 202.342 407.284 202.552 407.123 202.705C406.962 202.858 406.747 202.941 406.525 202.937C406.416 202.939 406.308 202.919 406.206 202.879C406.104 202.839 406.011 202.78 405.933 202.704C405.854 202.628 405.791 202.537 405.748 202.437C405.704 202.337 405.681 202.229 405.679 202.12C405.69 201.896 405.788 201.686 405.951 201.534C406.115 201.381 406.331 201.298 406.555 201.302C406.663 201.3 406.771 201.32 406.872 201.36C406.973 201.4 407.065 201.46 407.142 201.536C407.22 201.613 407.281 201.703 407.323 201.803C407.365 201.904 407.387 202.011 407.387 202.12Z" fill="#263238"/>
<path d="M408.788 200.018C408.672 200.12 408.044 199.609 407.139 199.565C406.234 199.521 405.519 199.945 405.431 199.828C405.343 199.711 405.504 199.58 405.811 199.375C406.224 199.129 406.702 199.012 407.183 199.04C407.658 199.058 408.115 199.233 408.482 199.536C408.745 199.769 408.832 199.974 408.788 200.018Z" fill="#263238"/>
<path d="M403.022 206.937C403.501 206.825 403.99 206.766 404.482 206.762C404.716 206.762 404.949 206.762 404.993 206.557C405.026 206.317 404.985 206.073 404.876 205.857L404.278 204.047C403.72 202.502 403.286 200.916 402.979 199.302C403.661 200.797 404.222 202.345 404.657 203.93C404.862 204.557 405.037 205.171 405.227 205.754C405.35 206.045 405.375 206.368 405.3 206.674C405.211 206.831 405.064 206.946 404.891 206.995C404.76 207.009 404.628 207.009 404.497 206.995C404.005 207.043 403.509 207.023 403.022 206.937Z" fill="#263238"/>
<path d="M403.065 217.798C399.931 217.657 396.898 216.646 394.307 214.878C394.307 214.878 396.423 219.593 403.065 219.345V217.798Z" fill="#EB996E"/>
<path d="M400.293 207.433C400.453 207.433 400.395 208.426 401.212 209.17C402.03 209.915 403.081 209.871 403.081 210.002C403.081 210.134 402.833 210.192 402.395 210.178C401.811 210.151 401.254 209.924 400.818 209.535C400.407 209.156 400.156 208.634 400.117 208.076C400.103 207.652 400.234 207.419 400.293 207.433Z" fill="#263238"/>
<path d="M408.598 196.573C408.438 196.792 407.737 196.573 406.919 196.573C406.102 196.573 405.46 196.777 405.241 196.573C405.022 196.368 405.241 196.251 405.562 196.047C405.964 195.794 406.429 195.657 406.905 195.653C407.383 195.64 407.855 195.767 408.262 196.018C408.569 196.281 408.671 196.47 408.598 196.573Z" fill="#263238"/>
<path d="M397.343 202.12C397.339 202.343 397.422 202.56 397.574 202.723C397.727 202.886 397.937 202.984 398.16 202.996C398.269 203.006 398.378 202.994 398.482 202.961C398.586 202.928 398.683 202.874 398.766 202.804C398.849 202.733 398.917 202.646 398.966 202.549C399.015 202.451 399.043 202.345 399.051 202.236C399.051 202.015 398.966 201.803 398.814 201.642C398.662 201.482 398.454 201.386 398.233 201.375C398.126 201.363 398.016 201.373 397.913 201.404C397.809 201.436 397.712 201.488 397.629 201.557C397.546 201.627 397.478 201.712 397.428 201.809C397.379 201.906 397.35 202.011 397.343 202.12Z" fill="#263238"/>
<path d="M396.234 199.696C396.336 199.813 396.993 199.346 397.912 199.361C398.832 199.375 399.489 199.842 399.591 199.74C399.693 199.638 399.591 199.492 399.241 199.273C398.851 198.988 398.381 198.834 397.898 198.835C397.424 198.82 396.958 198.959 396.569 199.229C396.277 199.448 396.175 199.638 396.234 199.696Z" fill="#263238"/>
<path d="M395.708 197.74C395.883 197.959 396.598 197.74 397.445 197.74C398.292 197.74 399.007 197.916 399.182 197.74C399.357 197.565 399.182 197.419 398.832 197.215C398.407 196.966 397.923 196.835 397.43 196.835C396.938 196.835 396.454 196.966 396.029 197.215C395.722 197.419 395.62 197.624 395.708 197.74Z" fill="#263238"/>
<path d="M390.381 204.587C390.381 204.09 389.914 202.893 389.418 202.791C388.133 202.514 385.783 202.499 385.578 205.798C385.301 210.309 389.958 209.652 389.958 209.521C389.958 209.389 390.293 206.28 390.381 204.587Z" fill="#FFBE9D"/>
<path d="M388.761 207.798C388.761 207.798 388.688 207.798 388.542 207.9C388.449 207.94 388.35 207.96 388.25 207.96C388.149 207.96 388.05 207.94 387.958 207.9C387.675 207.697 387.451 207.423 387.31 207.104C387.169 206.786 387.115 206.436 387.155 206.09C387.172 205.704 387.272 205.326 387.447 204.981C387.499 204.843 387.583 204.72 387.692 204.621C387.801 204.522 387.932 204.45 388.074 204.412C388.167 204.392 388.264 204.406 388.347 204.451C388.43 204.497 388.494 204.571 388.527 204.66C388.537 204.732 388.537 204.806 388.527 204.879C388.527 204.879 388.629 204.879 388.6 204.63C388.582 204.518 388.525 204.414 388.439 204.339C388.384 204.285 388.317 204.243 388.244 204.218C388.171 204.193 388.093 204.184 388.016 204.193C387.829 204.217 387.652 204.288 387.501 204.401C387.35 204.513 387.231 204.663 387.155 204.835C386.938 205.214 386.818 205.64 386.804 206.076C386.755 206.477 386.826 206.884 387.007 207.245C387.189 207.606 387.474 207.906 387.826 208.105C387.946 208.145 388.073 208.159 388.199 208.147C388.325 208.134 388.447 208.095 388.556 208.032C388.761 207.959 388.761 207.813 388.761 207.798Z" fill="#EB996E"/>
<path d="M389.242 202.806L390.38 203.988C395.344 199.259 405.051 187.391 404.511 188.091C402.245 187.255 399.808 186.994 397.416 187.332C393.723 187.96 386.731 189.799 386.833 194.135C387.05 197.157 387.869 200.105 389.242 202.806Z" fill="#263238"/>
<path d="M382.672 201.813C382.672 201.813 382.672 201.711 382.672 201.55C382.758 201.305 382.86 201.066 382.978 200.835C383.447 199.998 384.095 199.276 384.876 198.718C386.033 197.894 387.321 197.272 388.686 196.879C390.146 196.397 391.898 196.018 393.576 195.303C396.449 194.089 399.042 192.301 401.196 190.047C401.845 189.362 402.454 188.641 403.021 187.887L403.474 187.259C403.523 187.184 403.582 187.115 403.649 187.055L403.517 187.288C403.415 187.434 403.284 187.668 403.094 187.945C402.55 188.723 401.955 189.464 401.313 190.164C400.354 191.196 399.298 192.135 398.16 192.967C396.768 193.99 395.259 194.843 393.664 195.507C392.055 196.124 390.412 196.65 388.745 197.083C387.4 197.459 386.127 198.056 384.978 198.85C384.204 199.383 383.552 200.075 383.066 200.879C382.912 201.18 382.78 201.492 382.672 201.813Z" fill="#455A64"/>
<path d="M383.987 202.514C383.976 202.179 384.035 201.846 384.162 201.536C384.499 200.671 385.089 199.928 385.855 199.404C387.005 198.67 388.291 198.174 389.636 197.945C391.248 197.637 392.82 197.147 394.322 196.485C395.815 195.806 397.218 194.943 398.497 193.916C399.558 193.072 400.535 192.129 401.416 191.098C401.996 190.406 402.528 189.674 403.007 188.909C403.168 188.661 403.299 188.442 403.387 188.281C403.432 188.202 403.486 188.129 403.548 188.062C403.516 188.144 403.477 188.222 403.431 188.296L403.08 188.953C402.632 189.746 402.114 190.499 401.533 191.201C400.67 192.278 399.691 193.258 398.614 194.12C397.322 195.169 395.905 196.051 394.395 196.748C392.875 197.416 391.283 197.906 389.651 198.207C388.329 198.455 387.066 198.95 385.928 199.667C385.171 200.161 384.577 200.866 384.22 201.696C384.119 201.961 384.04 202.235 383.987 202.514Z" fill="#455A64"/>
<path d="M381.344 243.3C381.13 240.423 381.13 237.535 381.344 234.658C381.539 237.535 381.539 240.422 381.344 243.3Z" fill="#263238"/>
<path d="M412.32 242.687C412.282 242.201 412.282 241.713 412.32 241.227C412.408 240.009 412.364 238.786 412.189 237.577C411.962 236.371 411.609 235.192 411.138 234.059C410.917 233.591 410.741 233.102 410.612 232.6C410.898 233.026 411.138 233.481 411.328 233.957C411.868 235.083 412.256 236.276 412.481 237.504C412.655 238.739 412.655 239.992 412.481 241.227C412.489 241.718 412.435 242.209 412.32 242.687Z" fill="#263238"/>
<path d="M569.888 255.503H458.289C455.63 255.5 453.081 254.442 451.202 252.562C449.322 250.682 448.264 248.133 448.26 245.475V198.616L435.954 187.697H569.888C571.212 187.687 572.525 187.94 573.752 188.441C574.978 188.941 576.092 189.68 577.032 190.614C577.971 191.547 578.716 192.658 579.223 193.881C579.731 195.104 579.992 196.416 579.99 197.74V245.475C579.988 246.797 579.725 248.107 579.215 249.327C578.706 250.548 577.961 251.656 577.022 252.588C576.084 253.52 574.97 254.257 573.746 254.757C572.522 255.257 571.211 255.511 569.888 255.503Z" fill="#EBEBEB"/>
<path d="M562.239 263.094C558.28 263.47 554.301 263.597 550.327 263.474C546.357 263.597 542.384 263.47 538.43 263.094C542.384 262.719 546.357 262.592 550.327 262.715C554.301 262.591 558.28 262.718 562.239 263.094Z" fill="#E0E0E0"/>
<path d="M567.159 264.028C567.109 264.028 567.061 264.017 567.015 263.997C566.97 263.977 566.93 263.948 566.896 263.912L564.59 261.503C564.523 261.435 564.485 261.343 564.485 261.248C564.485 261.152 564.523 261.06 564.59 260.992C564.622 260.957 564.662 260.929 564.706 260.91C564.75 260.891 564.797 260.882 564.845 260.882C564.893 260.882 564.94 260.891 564.984 260.91C565.028 260.929 565.068 260.957 565.101 260.992L567.144 263.123L571.626 258.569C571.659 258.534 571.698 258.506 571.742 258.487C571.786 258.468 571.833 258.458 571.881 258.458C571.929 258.458 571.976 258.468 572.02 258.487C572.064 258.506 572.104 258.534 572.137 258.569C572.204 258.637 572.241 258.729 572.241 258.824C572.241 258.92 572.204 259.012 572.137 259.08L567.392 263.912C567.329 263.974 567.247 264.015 567.159 264.028Z" fill="#FFC727"/>
<path d="M570.443 263.956H570.019C569.922 263.956 569.83 263.917 569.761 263.849C569.693 263.78 569.654 263.687 569.654 263.591C569.664 263.495 569.708 263.406 569.777 263.339C569.847 263.272 569.938 263.232 570.034 263.226H570.297L574.924 258.511C574.958 258.475 574.999 258.447 575.044 258.428C575.089 258.409 575.138 258.399 575.187 258.399C575.236 258.399 575.284 258.409 575.33 258.428C575.375 258.447 575.416 258.475 575.45 258.511C575.516 258.579 575.554 258.67 575.554 258.766C575.554 258.862 575.516 258.953 575.45 259.021L570.705 263.839C570.673 263.876 570.632 263.906 570.587 263.927C570.542 263.947 570.492 263.957 570.443 263.956Z" fill="#FFC727"/>
<path d="M562.239 446.543C558.28 446.919 554.301 447.046 550.327 446.923C546.357 447.046 542.384 446.919 538.43 446.543C542.384 446.168 546.357 446.041 550.327 446.164C554.301 446.041 558.28 446.167 562.239 446.543Z" fill="#E0E0E0"/>
<path d="M567.158 447.478C567.101 447.483 567.044 447.476 566.991 447.456C566.938 447.435 566.89 447.403 566.852 447.361L564.545 444.952C564.504 444.92 564.471 444.879 564.448 444.832C564.424 444.786 564.411 444.734 564.409 444.682C564.406 444.63 564.415 444.578 564.435 444.53C564.455 444.481 564.485 444.438 564.523 444.402C564.561 444.366 564.606 444.339 564.655 444.322C564.705 444.305 564.757 444.299 564.809 444.304C564.861 444.309 564.911 444.325 564.956 444.352C565.001 444.378 565.04 444.413 565.071 444.456L567.114 446.587L571.596 442.033C571.629 441.998 571.668 441.97 571.712 441.951C571.756 441.932 571.803 441.922 571.851 441.922C571.899 441.922 571.947 441.932 571.99 441.951C572.034 441.97 572.074 441.998 572.107 442.033C572.174 442.101 572.211 442.193 572.211 442.288C572.211 442.384 572.174 442.475 572.107 442.544L567.421 447.361C567.35 447.429 567.257 447.471 567.158 447.478Z" fill="#FFC727"/>
<path d="M570.443 447.361H570.019C569.921 447.357 569.828 447.315 569.76 447.245C569.692 447.174 569.654 447.08 569.654 446.981C569.654 446.933 569.664 446.885 569.683 446.84C569.703 446.796 569.731 446.756 569.767 446.723C569.803 446.69 569.845 446.665 569.891 446.649C569.937 446.633 569.985 446.627 570.034 446.631H570.297L574.924 441.916C574.958 441.881 574.999 441.853 575.044 441.833C575.089 441.814 575.138 441.804 575.187 441.804C575.236 441.804 575.284 441.814 575.33 441.833C575.375 441.853 575.416 441.881 575.45 441.916C575.516 441.984 575.554 442.076 575.554 442.171C575.554 442.267 575.516 442.359 575.45 442.427L570.705 447.244C570.673 447.282 570.632 447.312 570.587 447.332C570.542 447.352 570.492 447.362 570.443 447.361Z" fill="#FFC727"/>
<path d="M568.458 201.112C568.458 201.317 544.094 201.492 514.037 201.492C483.981 201.492 459.632 201.317 459.632 201.112C459.632 200.908 483.981 200.733 514.037 200.733C544.094 200.733 568.458 200.893 568.458 201.112Z" fill="white"/>
<path d="M568.458 209.097C568.458 209.316 544.094 209.477 514.037 209.477C483.981 209.477 459.632 209.316 459.632 209.097C459.632 208.878 483.981 208.718 514.037 208.718C544.094 208.718 568.458 208.893 568.458 209.097Z" fill="white"/>
<path d="M568.458 217.097C568.458 217.301 544.094 217.476 514.037 217.476C483.981 217.476 459.632 217.301 459.632 217.097C459.632 216.893 483.981 216.717 514.037 216.717C544.094 216.717 568.458 216.893 568.458 217.097Z" fill="white"/>
<path d="M395.971 450.426C414.054 450.426 428.714 435.8 428.714 417.757C428.714 399.714 414.054 385.087 395.971 385.087C377.888 385.087 363.229 399.714 363.229 417.757C363.229 435.8 377.888 450.426 395.971 450.426Z" fill="#E0E0E0"/>
<path d="M380.673 425.931L389.256 425.202L410.189 428.734L412.656 444.441L412.306 446.266C407.592 448.931 402.292 450.391 396.878 450.516C391.464 450.64 386.103 449.426 381.271 446.981L380.673 425.888" fill="#455A64"/>
<path d="M405.708 428.472C407.784 428.172 409.902 428.46 411.822 429.304C413.741 430.148 415.386 431.513 416.569 433.245C417.99 435.229 419.291 437.296 420.466 439.434C417.05 443.142 414.277 445.96 409.547 447.595L405.708 428.472Z" fill="#455A64"/>
<path d="M380.673 425.931C380.673 425.931 375.009 426.618 372.82 431.449C370.63 436.281 370.119 437.799 370.119 437.799C373.039 441.317 376.776 445.492 381.345 447.054C381.345 447.054 382.381 434.894 382.513 431.449C382.673 427.683 382.819 425.815 380.673 425.931Z" fill="#455A64"/>
<path d="M385.841 394.984C387.265 393.154 389.084 391.669 391.161 390.638C393.238 389.607 395.521 389.057 397.84 389.029C399.833 389.017 401.812 389.368 403.679 390.065C405.641 390.541 407.376 391.687 408.584 393.306C410.069 395.22 411.044 397.48 411.416 399.875C411.758 402.331 411.875 404.813 411.766 407.29C411.649 409.776 410.846 412.181 409.445 414.239L403.153 415.334C399.684 415.603 396.195 415.417 392.774 414.779C389.317 414.115 386.263 412.11 384.279 409.203C381.753 405.028 382.804 398.707 385.841 394.984Z" fill="#263238"/>
<path d="M379.768 413.217C379.83 412.504 380.054 411.816 380.424 411.203C380.793 410.591 381.298 410.071 381.899 409.684C382.511 409.311 383.225 409.143 383.939 409.203C384.653 409.263 385.329 409.549 385.87 410.02L386.862 411.202C387.63 411.555 388.267 412.138 388.686 412.871C389.105 413.604 389.284 414.45 389.198 415.29C389.079 416.126 388.725 416.912 388.177 417.555C387.629 418.199 386.91 418.673 386.103 418.925C385.29 419.152 384.432 419.166 383.612 418.967C382.791 418.767 382.036 418.361 381.417 417.786C380.81 417.202 380.346 416.486 380.06 415.694C379.773 414.902 379.674 414.054 379.768 413.217Z" fill="#263238"/>
<path d="M381.008 417.45C380.774 417.074 380.657 416.637 380.672 416.195C380.883 415.137 381.389 414.16 382.132 413.377C382.833 412.546 383.691 411.861 384.657 411.363C385.387 410.969 385.898 410.823 385.884 410.764C385.419 410.807 384.968 410.941 384.555 411.159C383.532 411.625 382.624 412.313 381.898 413.173C381.493 413.643 381.15 414.163 380.877 414.72C380.636 415.172 380.496 415.67 380.468 416.18C380.463 416.531 380.559 416.876 380.745 417.173C380.877 417.392 381.008 417.465 381.008 417.45Z" fill="#455A64"/>
<path d="M403.124 427.888V422.049C403.124 422.049 408.248 421.479 409.678 414.925C410.35 410.58 410.614 406.181 410.467 401.787C410.467 397.802 407.036 392.371 402.102 392.357L399.912 392.109L391.519 395.437C390.935 395.466 390.383 395.713 389.972 396.129C389.561 396.545 389.321 397.1 389.3 397.685L389.052 425.713L392.891 431.099C393.594 432.05 394.577 432.758 395.702 433.122C396.828 433.486 398.039 433.489 399.166 433.13C400.293 432.771 401.279 432.068 401.986 431.12C402.694 430.172 403.086 429.026 403.109 427.844L403.124 427.888Z" fill="#FFBE9D"/>
<path d="M399.752 412.866C399.797 412.529 399.97 412.221 400.234 412.005C400.474 411.804 400.773 411.685 401.085 411.667C401.398 411.649 401.709 411.731 401.971 411.903C402.239 412.112 402.448 412.388 402.576 412.703C402.704 413.018 402.747 413.362 402.701 413.699C402.554 413.9 402.366 414.067 402.149 414.19C401.933 414.314 401.693 414.39 401.445 414.414H401.212C400.822 414.405 400.448 414.255 400.161 413.991C400.011 413.847 399.897 413.671 399.826 413.476C399.755 413.281 399.73 413.073 399.752 412.866Z" fill="#EB996E"/>
<path d="M407.387 406.487C407.36 406.695 407.258 406.885 407.101 407.023C406.944 407.161 406.742 407.237 406.533 407.237C406.324 407.237 406.122 407.161 405.965 407.023C405.808 406.885 405.706 406.695 405.679 406.487C405.69 406.264 405.788 406.054 405.951 405.901C406.115 405.749 406.331 405.666 406.555 405.67C406.663 405.668 406.771 405.688 406.872 405.728C406.973 405.768 407.065 405.828 407.142 405.904C407.22 405.98 407.281 406.071 407.323 406.171C407.365 406.271 407.387 406.379 407.387 406.487Z" fill="#263238"/>
<path d="M408.788 404.312C408.672 404.414 408.044 403.904 407.139 403.86C406.234 403.816 405.519 404.225 405.431 404.108C405.343 403.991 405.504 403.86 405.811 403.67C406.219 403.411 406.701 403.293 407.183 403.334C407.658 403.353 408.115 403.527 408.482 403.831C408.745 404.064 408.832 404.269 408.788 404.312Z" fill="#263238"/>
<path d="M403.022 411.232C403.501 411.118 403.99 411.054 404.482 411.042C404.716 411.042 404.949 411.042 404.993 410.837C405.025 410.597 404.984 410.353 404.876 410.137C404.686 409.567 404.482 408.969 404.278 408.327C403.723 406.786 403.289 405.205 402.979 403.597C403.663 405.086 404.224 406.629 404.657 408.21C404.862 408.852 405.037 409.451 405.227 410.035C405.35 410.325 405.375 410.648 405.3 410.954C405.26 411.035 405.203 411.106 405.132 411.162C405.061 411.217 404.979 411.256 404.891 411.275C404.76 411.295 404.627 411.295 404.497 411.275C404.006 411.328 403.51 411.313 403.022 411.232Z" fill="#263238"/>
<path d="M403.065 422.078C399.939 421.955 396.907 420.97 394.307 419.231C394.307 419.231 396.423 423.946 403.065 423.698V422.078Z" fill="#EB996E"/>
<path d="M400.293 411.713C400.453 411.713 400.395 412.706 401.212 413.465C402.03 414.224 403.081 414.166 403.081 414.297C403.081 414.429 402.833 414.472 402.395 414.472C401.808 414.447 401.249 414.214 400.818 413.815C400.402 413.44 400.15 412.915 400.117 412.356C400.103 411.947 400.234 411.713 400.293 411.713Z" fill="#263238"/>
<path d="M408.598 400.867C408.438 401.086 407.737 400.867 406.919 400.867C406.102 400.867 405.46 401.072 405.241 400.867C405.022 400.663 405.241 400.546 405.562 400.342C405.961 400.082 406.428 399.945 406.905 399.948C407.384 399.928 407.858 400.055 408.262 400.312C408.569 400.546 408.671 400.765 408.598 400.867Z" fill="#263238"/>
<path d="M397.343 406.371C397.339 406.593 397.422 406.807 397.575 406.969C397.728 407.13 397.938 407.224 398.16 407.232C398.268 407.244 398.377 407.234 398.481 407.203C398.585 407.171 398.682 407.119 398.765 407.05C398.848 406.98 398.916 406.895 398.965 406.798C399.015 406.701 399.044 406.596 399.051 406.487C399.055 406.264 398.972 406.047 398.819 405.884C398.667 405.721 398.457 405.623 398.233 405.611C398.125 405.601 398.015 405.613 397.911 405.646C397.807 405.679 397.711 405.733 397.628 405.803C397.545 405.874 397.477 405.961 397.428 406.058C397.379 406.156 397.35 406.262 397.343 406.371Z" fill="#263238"/>
<path d="M396.234 403.977C396.336 404.093 396.993 403.626 397.912 403.655C398.832 403.685 399.489 404.137 399.591 404.02C399.693 403.904 399.591 403.772 399.241 403.553C398.848 403.274 398.38 403.121 397.898 403.115C397.423 403.112 396.96 403.254 396.569 403.524C396.277 403.728 396.175 403.933 396.234 403.977Z" fill="#263238"/>
<path d="M395.708 402.02C395.883 402.225 396.598 402.02 397.445 402.02C398.292 402.02 399.007 402.181 399.182 402.02C399.357 401.86 399.182 401.714 398.832 401.51C398.407 401.261 397.923 401.129 397.43 401.129C396.938 401.129 396.454 401.261 396.029 401.51C395.722 401.699 395.62 401.918 395.708 402.02Z" fill="#263238"/>
<path d="M390.381 408.312C390.381 407.816 389.914 406.633 389.418 406.531C388.133 406.254 385.783 406.225 385.578 409.524C385.301 414.034 389.958 413.392 389.958 413.261C389.958 413.129 390.293 410.02 390.381 408.312Z" fill="#FFBE9D"/>
<path d="M388.76 411.538C388.76 411.538 388.687 411.538 388.541 411.64C388.353 411.712 388.145 411.712 387.957 411.64C387.676 411.44 387.453 411.167 387.311 410.852C387.17 410.536 387.116 410.188 387.154 409.845C387.17 409.458 387.269 409.08 387.446 408.735C387.499 408.598 387.583 408.474 387.692 408.375C387.801 408.277 387.932 408.205 388.074 408.166C388.165 408.148 388.259 408.161 388.341 408.204C388.423 408.246 388.489 408.315 388.526 408.4C388.539 408.477 388.539 408.556 388.526 408.633C388.526 408.633 388.629 408.56 388.599 408.37C388.578 408.259 388.522 408.156 388.439 408.078C388.381 408.029 388.313 407.992 388.24 407.97C388.168 407.947 388.091 407.94 388.015 407.947C387.828 407.968 387.649 408.039 387.498 408.152C387.347 408.265 387.228 408.416 387.154 408.589C386.936 408.968 386.816 409.394 386.804 409.83C386.755 410.229 386.827 410.634 387.009 410.993C387.191 411.351 387.475 411.648 387.826 411.845C387.939 411.9 388.064 411.929 388.191 411.929C388.317 411.929 388.442 411.9 388.556 411.845C388.76 411.64 388.76 411.538 388.76 411.538Z" fill="#EB996E"/>
<path d="M389.242 406.487L390.38 407.684C395.344 402.94 405.051 391.072 404.511 391.787C402.248 390.941 399.809 390.675 397.416 391.014C393.723 391.642 386.731 393.481 386.833 397.831C387.052 400.848 387.871 403.791 389.242 406.487Z" fill="#263238"/>
<path d="M382.672 405.538C382.672 405.538 382.672 405.451 382.672 405.276C382.761 405.037 382.863 404.803 382.978 404.575C383.45 403.736 384.097 403.009 384.876 402.444C386.058 401.627 387.371 401.019 388.759 400.648C390.219 400.152 391.971 399.772 393.649 399.057C395.23 398.401 396.729 397.563 398.116 396.561C399.249 395.744 400.304 394.825 401.269 393.817C402.087 392.941 402.729 392.182 403.094 391.656C403.269 391.393 403.43 391.189 403.547 391.028C403.663 390.868 403.707 390.809 403.722 390.824L403.59 391.058L403.167 391.7C402.63 392.483 402.035 393.225 401.386 393.919C400.427 394.956 399.371 395.899 398.233 396.736C396.832 397.73 395.318 398.553 393.722 399.188C392.029 399.904 390.306 400.283 388.803 400.765C387.459 401.136 386.186 401.728 385.037 402.517C384.262 403.055 383.61 403.751 383.124 404.56C382.954 404.877 382.802 405.203 382.672 405.538Z" fill="#455A64"/>
<path d="M383.987 406.254C383.976 405.914 384.035 405.576 384.162 405.261C384.496 404.399 385.087 403.66 385.855 403.144C387.005 402.41 388.291 401.914 389.636 401.685C391.246 401.37 392.818 400.881 394.322 400.225C395.815 399.546 397.218 398.683 398.497 397.656C400.255 396.248 401.765 394.556 402.964 392.649C403.124 392.386 403.256 392.182 403.343 392.006C403.39 391.934 403.444 391.865 403.504 391.802C403.473 391.884 403.433 391.962 403.387 392.036L403.037 392.693C402.588 393.486 402.071 394.238 401.489 394.941C400.627 396.018 399.648 396.998 398.57 397.86C397.282 398.909 395.864 399.787 394.351 400.473C392.829 401.134 391.237 401.624 389.607 401.933C388.281 402.167 387.016 402.663 385.884 403.393C385.119 403.876 384.522 404.585 384.176 405.422C384.087 405.693 384.024 405.971 383.987 406.254Z" fill="#455A64"/>
<path d="M381.344 447.025C381.13 444.153 381.13 441.27 381.344 438.398C381.539 441.27 381.539 444.153 381.344 447.025Z" fill="#263238"/>
<path d="M412.32 446.427C412.278 445.917 412.278 445.404 412.32 444.894C412.408 443.671 412.364 442.443 412.189 441.23C411.96 440.029 411.608 438.855 411.138 437.726C410.92 437.256 410.744 436.768 410.612 436.267C410.898 436.693 411.138 437.148 411.328 437.624C411.87 438.749 412.258 439.942 412.481 441.171C412.655 442.406 412.655 443.659 412.481 444.894C412.493 445.41 412.439 445.925 412.32 446.427Z" fill="#263238"/>
<path d="M569.888 436.967H458.289C455.628 436.963 453.077 435.904 451.196 434.021C449.316 432.138 448.26 429.585 448.26 426.924V402.342L435.954 391.423H569.888C572.547 391.426 575.095 392.484 576.975 394.364C578.855 396.244 579.913 398.793 579.917 401.451V426.924C579.917 429.585 578.86 432.138 576.98 434.021C575.1 435.904 572.549 436.963 569.888 436.967Z" fill="#EBEBEB"/>
<path d="M568.458 404.838C568.458 405.057 544.094 405.217 514.037 405.217C483.981 405.217 459.632 405.057 459.632 404.838C459.632 404.619 483.981 404.458 514.037 404.458C544.094 404.458 568.458 404.633 568.458 404.838Z" fill="white"/>
<path d="M568.458 412.837C568.458 413.042 544.094 413.217 514.037 413.217C483.981 413.217 459.632 413.042 459.632 412.837C459.632 412.633 483.981 412.458 514.037 412.458C544.094 412.458 568.458 412.633 568.458 412.837Z" fill="white"/>
<path d="M568.458 420.837C568.458 421.041 544.094 421.216 514.037 421.216C483.981 421.216 459.632 421.041 459.632 420.837C459.632 420.632 483.981 420.457 514.037 420.457C544.094 420.457 568.458 420.618 568.458 420.837Z" fill="white"/>
<path d="M568.458 225.096C568.458 225.301 544.094 225.476 514.037 225.476C483.981 225.476 459.632 225.301 459.632 225.096C459.632 224.892 483.981 224.717 514.037 224.717C544.094 224.717 568.458 224.877 568.458 225.096Z" fill="white"/>
<path d="M568.458 233.081C568.458 233.3 544.094 233.461 514.037 233.461C483.981 233.461 459.632 233.3 459.632 233.081C459.632 232.862 483.981 232.702 514.037 232.702C544.094 232.702 568.458 232.877 568.458 233.081Z" fill="white"/>
<path d="M568.458 242.687C568.458 242.906 544.094 243.066 514.037 243.066C483.981 243.066 459.632 242.906 459.632 242.687C459.632 242.468 483.981 242.307 514.037 242.307C544.094 242.307 568.458 242.482 568.458 242.687Z" fill="white"/>
<path d="M460.289 103.775C460.367 102.641 460.775 101.554 461.461 100.648C462.148 99.7418 463.085 99.056 464.156 98.6747C465.227 98.2933 466.386 98.233 467.491 98.5012C468.596 98.7693 469.599 99.3541 470.376 100.184L468.814 101.644C468.491 101.253 468.085 100.938 467.626 100.724C467.166 100.509 466.665 100.4 466.157 100.403C465.259 100.403 464.398 100.76 463.763 101.395C463.127 102.03 462.771 102.891 462.771 103.79C462.771 104.688 463.127 105.549 463.763 106.184C464.398 106.819 465.259 107.176 466.157 107.176C466.666 107.18 467.169 107.069 467.629 106.852C468.089 106.634 468.494 106.316 468.814 105.921L470.376 107.381C469.6 108.21 468.598 108.795 467.495 109.063C466.391 109.332 465.233 109.273 464.162 108.893C463.092 108.514 462.155 107.83 461.467 106.926C460.779 106.022 460.37 104.937 460.289 103.804V103.775Z" fill="#263238"/>
<path d="M480.084 104.403V109.059H477.806V104.768C477.806 103.454 477.193 102.855 476.157 102.855C475.12 102.855 474.215 103.556 474.215 105.045V109.059H471.851V97.8629H474.215V101.79C474.558 101.461 474.963 101.205 475.407 101.036C475.851 100.868 476.325 100.792 476.799 100.812C477.262 100.793 477.724 100.876 478.152 101.054C478.58 101.232 478.963 101.502 479.276 101.844C479.589 102.186 479.823 102.592 479.963 103.034C480.102 103.476 480.144 103.943 480.084 104.403Z" fill="#263238"/>
<path d="M489.397 104.432V109.059H487.193V108.052C486.919 108.446 486.544 108.759 486.107 108.956C485.67 109.154 485.188 109.23 484.711 109.176C482.813 109.176 481.689 108.125 481.689 106.724C481.689 105.322 482.697 104.286 485.178 104.286H487.047C487.047 103.279 486.434 102.695 485.178 102.695C484.336 102.686 483.512 102.947 482.828 103.439L481.981 101.804C483.023 101.13 484.244 100.784 485.485 100.812C488.025 100.812 489.397 101.965 489.397 104.432ZM487.047 106.49V105.658H485.426C484.332 105.658 483.967 106.067 483.967 106.622C483.967 107.176 484.463 107.6 485.295 107.6C485.668 107.628 486.039 107.535 486.355 107.335C486.67 107.135 486.913 106.839 487.047 106.49Z" fill="#263238"/>
<path d="M496.783 108.694C496.207 109.056 495.535 109.234 494.856 109.205C494.455 109.261 494.047 109.224 493.662 109.098C493.278 108.973 492.927 108.761 492.636 108.48C492.345 108.199 492.121 107.855 491.983 107.475C491.844 107.095 491.793 106.688 491.834 106.286V102.943H490.579V101.133H491.834V99.1475H494.185V101.133H496.214V102.943H494.185V106.257C494.167 106.396 494.181 106.537 494.224 106.67C494.268 106.804 494.34 106.926 494.437 107.027C494.533 107.129 494.651 107.209 494.781 107.26C494.912 107.311 495.052 107.332 495.192 107.322C495.534 107.335 495.87 107.226 496.141 107.016L496.783 108.694Z" fill="#263238"/>
<path d="M538.43 120.066C538.43 120.27 513.614 120.446 482.857 120.446C452.099 120.446 427.298 120.27 427.298 120.066C427.298 119.862 452.114 119.672 482.857 119.672C513.599 119.672 538.43 119.847 538.43 120.066Z" fill="#263238"/>
<path d="M587.668 103.775C589.095 103.775 590.252 102.618 590.252 101.191C590.252 99.7642 589.095 98.6074 587.668 98.6074C586.241 98.6074 585.084 99.7642 585.084 101.191C585.084 102.618 586.241 103.775 587.668 103.775Z" fill="#263238"/>
<path d="M590.207 108.694C590.21 109.21 590.06 109.714 589.776 110.143C589.491 110.573 589.086 110.908 588.61 111.107C588.135 111.305 587.611 111.358 587.106 111.258C586.6 111.158 586.136 110.911 585.772 110.546C585.408 110.182 585.16 109.718 585.06 109.212C584.96 108.707 585.013 108.183 585.211 107.708C585.41 107.233 585.745 106.827 586.175 106.542C586.604 106.258 587.109 106.108 587.624 106.111C588.308 106.114 588.963 106.388 589.446 106.872C589.93 107.355 590.204 108.01 590.207 108.694Z" fill="#263238"/>
<path d="M590.207 116.271C590.21 116.786 590.06 117.29 589.776 117.72C589.491 118.149 589.086 118.485 588.61 118.683C588.135 118.881 587.611 118.934 587.106 118.834C586.6 118.735 586.136 118.487 585.772 118.123C585.408 117.758 585.16 117.294 585.06 116.789C584.96 116.283 585.013 115.759 585.211 115.284C585.41 114.809 585.745 114.403 586.175 114.119C586.604 113.834 587.109 113.684 587.624 113.687C588.309 113.687 588.966 113.959 589.451 114.444C589.935 114.928 590.207 115.585 590.207 116.271Z" fill="#263238"/>
<path d="M377.549 109.95C377.39 109.953 377.236 109.902 377.111 109.804L370.265 104.782C370.171 104.713 370.095 104.623 370.041 104.519C369.988 104.415 369.96 104.3 369.958 104.184C369.959 104.069 369.987 103.956 370.04 103.854C370.093 103.753 370.17 103.665 370.265 103.6L377.111 98.6658C377.189 98.6098 377.278 98.5699 377.372 98.5484C377.466 98.5269 377.563 98.5242 377.658 98.5404C377.753 98.5567 377.844 98.5917 377.926 98.6433C378.007 98.6948 378.077 98.762 378.133 98.841C378.243 98.9966 378.288 99.1891 378.258 99.3773C378.228 99.5655 378.125 99.7345 377.972 99.8482L371.929 104.228L377.972 108.607C378.126 108.723 378.229 108.895 378.259 109.085C378.289 109.276 378.244 109.471 378.133 109.629C378.069 109.726 377.982 109.805 377.88 109.861C377.779 109.917 377.665 109.948 377.549 109.95Z" fill="#263238"/>
<path d="M556.21 355.395C574.294 355.395 588.953 340.769 588.953 322.726C588.953 304.683 574.294 290.056 556.21 290.056C538.127 290.056 523.468 304.683 523.468 322.726C523.468 340.769 538.127 355.395 556.21 355.395Z" fill="#E0E0E0"/>
<path d="M565.174 342.039H547.948C547.36 342.039 546.795 341.805 546.379 341.389C545.963 340.973 545.729 340.408 545.729 339.82C545.729 339.23 545.963 338.664 546.378 338.246C546.794 337.827 547.359 337.59 547.948 337.586H565.174C565.763 337.59 566.328 337.827 566.743 338.246C567.159 338.664 567.392 339.23 567.392 339.82C567.392 340.408 567.159 340.973 566.743 341.389C566.326 341.805 565.762 342.039 565.174 342.039Z" fill="#263238"/>
<path d="M557.539 301.486H556.021V309.135H557.539V301.486Z" fill="#263238"/>
<path d="M534.459 332.068C536.91 332.068 538.897 330.082 538.897 327.631C538.897 325.18 536.91 323.193 534.459 323.193C532.008 323.193 530.021 325.18 530.021 327.631C530.021 330.082 532.008 332.068 534.459 332.068Z" fill="#FFC727"/>
<path d="M579.333 331.776C581.784 331.776 583.771 329.79 583.771 327.339C583.771 324.888 581.784 322.901 579.333 322.901C576.882 322.901 574.896 324.888 574.896 327.339C574.896 329.79 576.882 331.776 579.333 331.776Z" fill="#FFC727"/>
<path d="M557.437 307.53C557.437 307.53 575.509 307.311 578.37 322.974C581.231 338.637 565.947 338.915 561.553 339.207C559.568 339.338 555.305 339.353 551.539 339.294C543.204 339.148 537.321 337.542 535.321 329.806C535.082 328.898 534.93 327.969 534.869 327.032C534.343 318.565 540.065 307.121 557.437 307.53Z" fill="#FFC727"/>
<path d="M544.327 331.368L570.603 331.776C571.925 331.796 573.2 331.291 574.15 330.371C575.099 329.452 575.645 328.193 575.668 326.872C575.684 325.55 575.175 324.276 574.253 323.329C573.331 322.382 572.071 321.84 570.749 321.821L544.473 321.412C543.818 321.4 543.167 321.518 542.558 321.759C541.949 321.999 541.393 322.357 540.922 322.813C540.452 323.269 540.076 323.813 539.816 324.414C539.556 325.015 539.417 325.662 539.408 326.317C539.398 326.972 539.518 327.622 539.76 328.231C540.002 328.839 540.362 329.394 540.819 329.863C541.276 330.333 541.821 330.707 542.423 330.965C543.025 331.223 543.672 331.36 544.327 331.368Z" fill="#263238"/>
<path d="M565.143 326.331C565.182 326.538 565.261 326.735 565.376 326.91C565.491 327.086 565.639 327.238 565.813 327.356C565.987 327.474 566.182 327.556 566.388 327.598C566.593 327.641 566.806 327.642 567.012 327.601C567.234 327.579 567.449 327.51 567.643 327.4C567.837 327.29 568.007 327.14 568.14 326.961C568.273 326.782 568.367 326.577 568.416 326.359C568.466 326.141 568.469 325.915 568.426 325.696C568.383 325.477 568.295 325.269 568.168 325.086C568.04 324.902 567.876 324.748 567.685 324.632C567.494 324.516 567.281 324.441 567.059 324.412C566.838 324.383 566.613 324.4 566.399 324.463C566.193 324.503 565.998 324.583 565.824 324.699C565.65 324.815 565.5 324.963 565.384 325.137C565.267 325.311 565.186 325.505 565.145 325.71C565.103 325.915 565.103 326.126 565.143 326.331Z" fill="white"/>
<path d="M546.794 326.04C546.817 326.262 546.885 326.477 546.996 326.671C547.106 326.865 547.255 327.034 547.435 327.167C547.614 327.301 547.819 327.395 548.037 327.444C548.255 327.494 548.481 327.497 548.7 327.454C548.919 327.411 549.127 327.323 549.31 327.196C549.493 327.068 549.648 326.903 549.764 326.712C549.88 326.522 549.955 326.309 549.984 326.087C550.013 325.866 549.996 325.641 549.933 325.426C549.82 325.042 549.568 324.714 549.226 324.506C548.884 324.298 548.477 324.225 548.084 324.302C547.691 324.379 547.341 324.6 547.103 324.921C546.864 325.242 546.754 325.641 546.794 326.04Z" fill="white"/>
<path d="M559.276 301.384C559.278 301.878 559.135 302.362 558.862 302.775C558.589 303.187 558.201 303.509 557.745 303.701C557.289 303.892 556.787 303.943 556.301 303.849C555.816 303.754 555.37 303.517 555.02 303.169C554.669 302.82 554.43 302.376 554.332 301.891C554.235 301.406 554.283 300.904 554.472 300.447C554.66 299.99 554.98 299.599 555.391 299.324C555.802 299.049 556.285 298.902 556.779 298.902C557.439 298.902 558.072 299.163 558.539 299.628C559.007 300.093 559.272 300.724 559.276 301.384Z" fill="#FFC727"/>
<path d="M560.546 325.602C560.546 325.602 560.648 325.718 560.707 325.981C560.752 326.354 560.717 326.732 560.604 327.09C560.444 327.645 560.142 328.148 559.729 328.55C559.223 329.056 558.557 329.37 557.845 329.441C557.134 329.5 556.423 329.314 555.831 328.915C555.362 328.598 554.977 328.172 554.707 327.674C554.534 327.339 554.435 326.971 554.415 326.594C554.415 326.331 554.415 326.185 554.503 326.185C554.59 326.185 554.649 326.74 555.13 327.426C555.411 327.806 555.763 328.129 556.167 328.375C556.655 328.665 557.221 328.798 557.787 328.755C558.331 328.685 558.84 328.451 559.247 328.083C559.615 327.778 559.909 327.394 560.108 326.959C560.488 326.2 560.429 325.602 560.546 325.602Z" fill="white"/>
<path d="M578.341 322.463C578.395 322.586 578.439 322.713 578.472 322.843C578.529 322.996 578.578 323.151 578.618 323.31C578.618 323.485 578.72 323.689 578.764 323.937C578.876 324.482 578.954 325.033 578.998 325.587C579.048 326.267 579.048 326.95 578.998 327.631C578.937 328.31 578.825 328.983 578.662 329.645C578.524 330.182 578.349 330.709 578.136 331.222C578.064 331.425 577.981 331.625 577.888 331.82C577.824 331.966 577.751 332.107 577.669 332.243L577.465 332.608C577.497 332.474 577.551 332.346 577.625 332.229L577.815 331.776C577.888 331.601 577.976 331.411 578.049 331.192C578.245 330.679 578.406 330.152 578.53 329.616C578.686 328.957 578.798 328.289 578.866 327.616C578.909 326.94 578.909 326.263 578.866 325.587C578.83 325.038 578.762 324.493 578.662 323.952C578.631 323.726 578.587 323.502 578.53 323.28C578.53 323.091 578.457 322.945 578.428 322.813C578.383 322.701 578.354 322.583 578.341 322.463Z" fill="#263238"/>
<path d="M535.525 322.551C535.463 322.676 535.414 322.809 535.379 322.945C535.379 323.062 535.292 323.222 535.233 323.397C535.175 323.572 535.131 323.791 535.087 324.025C534.975 324.569 534.902 325.12 534.868 325.675C534.817 326.355 534.817 327.038 534.868 327.718C534.927 328.398 535.039 329.071 535.204 329.733C535.339 330.275 535.515 330.807 535.729 331.324C535.802 331.543 535.905 331.733 535.978 331.908C536.051 332.083 536.138 332.229 536.197 332.346L536.401 332.696C536.363 332.564 536.309 332.436 536.24 332.316C536.24 332.2 536.124 332.054 536.051 331.879C535.978 331.703 535.89 331.514 535.817 331.295C535.621 330.776 535.46 330.244 535.335 329.703C535.178 329.045 535.066 328.377 535 327.704C534.956 327.033 534.956 326.36 535 325.689C535.036 325.136 535.104 324.585 535.204 324.04C535.235 323.833 535.279 323.628 535.335 323.426C535.335 323.237 535.408 323.076 535.438 322.959C535.467 322.843 535.525 322.551 535.525 322.551Z" fill="#263238"/>
<path d="M539.423 350.783C539.423 350.783 544.795 345.542 556.02 345.542C567.246 345.542 572.998 350.783 572.998 350.783C567.932 353.839 562.127 355.455 556.21 355.455C550.293 355.455 544.489 353.839 539.423 350.783Z" fill="#FFC727"/>
<path d="M377.082 356.038H488.667C489.985 356.04 491.29 355.782 492.507 355.278C493.725 354.775 494.831 354.036 495.763 353.105C496.694 352.173 497.433 351.067 497.936 349.849C498.44 348.632 498.698 347.327 498.696 346.009V313.631L511.002 302.712H377.082C375.765 302.712 374.461 302.972 373.245 303.476C372.028 303.98 370.922 304.718 369.991 305.65C369.06 306.581 368.321 307.686 367.817 308.903C367.313 310.12 367.054 311.424 367.054 312.741V346.009C367.052 347.327 367.31 348.632 367.813 349.849C368.316 351.067 369.055 352.173 369.987 353.105C370.918 354.036 372.025 354.775 373.242 355.278C374.46 355.782 375.765 356.04 377.082 356.038Z" fill="#EBEBEB"/>
<path d="M483.645 318.536C483.645 318.755 460.668 318.916 432.32 318.916C403.971 318.916 380.994 318.755 380.994 318.536C380.994 318.317 403.971 318.157 432.32 318.157C460.668 318.157 483.645 318.332 483.645 318.536Z" fill="white"/>
<path d="M483.645 327.207C483.645 327.426 460.668 327.587 432.32 327.587C403.971 327.587 380.994 327.426 380.994 327.207C380.994 326.988 403.971 326.828 432.32 326.828C460.668 326.828 483.645 327.003 483.645 327.207Z" fill="white"/>
<path d="M483.645 335.878C483.645 336.083 460.668 336.258 432.32 336.258C403.971 336.258 380.994 336.083 380.994 335.878C380.994 335.674 403.971 335.499 432.32 335.499C460.668 335.499 483.645 335.674 483.645 335.878Z" fill="white"/>
<path d="M483.645 344.549C483.645 344.754 460.668 344.929 432.32 344.929C403.971 344.929 380.994 344.754 380.994 344.549C380.994 344.345 403.971 344.17 432.32 344.17C460.668 344.17 483.645 344.33 483.645 344.549Z" fill="white"/>
<path d="M556.21 536.816C574.294 536.816 588.953 522.189 588.953 504.146C588.953 486.103 574.294 471.476 556.21 471.476C538.127 471.476 523.468 486.103 523.468 504.146C523.468 522.189 538.127 536.816 556.21 536.816Z" fill="#E0E0E0"/>
<path d="M565.174 523.459H547.948C547.656 523.459 547.366 523.401 547.096 523.288C546.826 523.176 546.58 523.011 546.374 522.804C546.168 522.596 546.005 522.35 545.894 522.079C545.784 521.808 545.728 521.518 545.73 521.225C545.73 520.637 545.963 520.072 546.379 519.656C546.796 519.24 547.36 519.006 547.948 519.006H565.174C565.762 519.006 566.327 519.24 566.743 519.656C567.159 520.072 567.393 520.637 567.393 521.225C567.394 521.518 567.338 521.808 567.228 522.079C567.117 522.35 566.954 522.596 566.748 522.804C566.542 523.011 566.296 523.176 566.026 523.288C565.756 523.401 565.466 523.459 565.174 523.459Z" fill="#263238"/>
<path d="M557.539 482.906H556.021V490.555H557.539V482.906Z" fill="#263238"/>
<path d="M534.459 513.488C536.91 513.488 538.897 511.502 538.897 509.051C538.897 506.6 536.91 504.613 534.459 504.613C532.008 504.613 530.021 506.6 530.021 509.051C530.021 511.502 532.008 513.488 534.459 513.488Z" fill="#FFC727"/>
<path d="M579.333 513.182C581.784 513.182 583.771 511.195 583.771 508.744C583.771 506.293 581.784 504.307 579.333 504.307C576.882 504.307 574.896 506.293 574.896 508.744C574.896 511.195 576.882 513.182 579.333 513.182Z" fill="#FFC727"/>
<path d="M557.437 488.95C557.437 488.95 575.509 488.731 578.37 504.379C581.231 520.028 565.947 520.335 561.553 520.627C559.568 520.758 555.305 520.773 551.539 520.714C543.204 520.568 537.321 518.948 535.321 511.226C535.082 510.318 534.93 509.389 534.869 508.452C534.343 499.986 540.065 488.526 557.437 488.95Z" fill="#FFC727"/>
<path d="M544.327 512.788L570.603 513.196C571.925 513.216 573.2 512.711 574.15 511.791C575.099 510.872 575.645 509.613 575.668 508.292C575.684 506.97 575.175 505.696 574.253 504.749C573.331 503.803 572.071 503.26 570.749 503.241L544.473 502.818C543.152 502.798 541.876 503.303 540.927 504.223C539.977 505.142 539.431 506.401 539.408 507.722C539.398 508.378 539.518 509.029 539.76 509.638C540.002 510.248 540.361 510.804 540.818 511.274C541.275 511.744 541.82 512.12 542.422 512.38C543.024 512.64 543.672 512.778 544.327 512.788Z" fill="#263238"/>
<path d="M565.144 507.752C565.179 507.96 565.256 508.159 565.368 508.337C565.48 508.516 565.627 508.67 565.799 508.792C565.971 508.914 566.166 509.001 566.371 509.048C566.577 509.095 566.79 509.101 566.998 509.065C567.206 509.03 567.405 508.954 567.584 508.841C567.762 508.729 567.917 508.583 568.039 508.411C568.161 508.238 568.248 508.044 568.295 507.838C568.341 507.632 568.347 507.419 568.312 507.211C568.289 506.989 568.221 506.774 568.11 506.58C568 506.386 567.851 506.217 567.671 506.083C567.492 505.95 567.287 505.856 567.069 505.807C566.851 505.757 566.625 505.754 566.406 505.797C566.187 505.84 565.979 505.928 565.796 506.055C565.613 506.183 565.458 506.348 565.342 506.539C565.226 506.729 565.151 506.942 565.122 507.164C565.093 507.385 565.11 507.61 565.173 507.825L565.144 507.752Z" fill="white"/>
<path d="M546.795 507.46C546.856 507.771 547.008 508.058 547.231 508.284C547.455 508.509 547.74 508.663 548.051 508.726C548.363 508.79 548.686 508.759 548.98 508.639C549.273 508.519 549.525 508.314 549.703 508.051C549.88 507.787 549.976 507.477 549.977 507.16C549.978 506.842 549.886 506.531 549.71 506.267C549.535 506.002 549.285 505.795 548.992 505.672C548.7 505.549 548.377 505.516 548.065 505.577C547.858 505.617 547.661 505.697 547.485 505.814C547.309 505.93 547.158 506.08 547.04 506.255C546.922 506.43 546.84 506.626 546.798 506.833C546.756 507.04 546.755 507.253 546.795 507.46Z" fill="white"/>
<path d="M559.276 482.746C559.276 483.239 559.129 483.722 558.855 484.132C558.581 484.543 558.191 484.863 557.735 485.052C557.279 485.241 556.777 485.29 556.292 485.194C555.808 485.098 555.363 484.86 555.014 484.511C554.665 484.162 554.427 483.717 554.331 483.233C554.235 482.748 554.284 482.247 554.473 481.79C554.662 481.334 554.982 480.944 555.393 480.67C555.803 480.396 556.286 480.249 556.779 480.249C557.441 480.249 558.076 480.512 558.544 480.981C559.013 481.449 559.276 482.084 559.276 482.746Z" fill="#FFC727"/>
<path d="M560.546 507.007C560.546 507.007 560.648 507.138 560.707 507.401C560.752 507.774 560.717 508.152 560.604 508.511C560.44 509.063 560.139 509.566 559.729 509.97C559.223 510.476 558.557 510.791 557.845 510.861C557.134 510.92 556.423 510.735 555.831 510.335C555.362 510.018 554.977 509.592 554.707 509.095C554.536 508.759 554.436 508.391 554.415 508.014C554.415 507.752 554.415 507.606 554.503 507.606C554.59 507.606 554.649 508.16 555.13 508.832C555.407 509.22 555.759 509.548 556.167 509.795C556.659 510.076 557.222 510.208 557.787 510.175C558.331 510.105 558.84 509.871 559.247 509.503C559.608 509.192 559.902 508.809 560.108 508.379C560.488 507.591 560.429 507.022 560.546 507.007Z" fill="white"/>
<path d="M578.341 503.869C578.341 503.869 578.341 504.015 578.472 504.263C578.531 504.415 578.58 504.571 578.618 504.73C578.618 504.905 578.72 505.109 578.764 505.343C578.874 505.888 578.952 506.439 578.998 506.993C579.048 507.673 579.048 508.356 578.998 509.036C578.939 509.716 578.827 510.389 578.662 511.051C578.526 511.593 578.351 512.125 578.136 512.642C578.064 512.841 577.981 513.036 577.888 513.226C577.827 513.377 577.754 513.524 577.669 513.664L577.465 514.014C577.503 513.882 577.557 513.754 577.625 513.634C577.625 513.518 577.742 513.372 577.815 513.197C577.888 513.021 577.976 512.832 578.049 512.613C578.247 512.094 578.408 511.563 578.53 511.021C578.687 510.368 578.8 509.705 578.866 509.036C578.909 508.361 578.909 507.683 578.866 507.007C578.831 506.459 578.762 505.913 578.662 505.372C578.631 505.16 578.587 504.951 578.53 504.744C578.53 504.555 578.457 504.409 578.428 504.277C578.378 504.146 578.349 504.009 578.341 503.869Z" fill="#263238"/>
<path d="M535.525 503.971C535.463 504.097 535.414 504.229 535.379 504.365C535.379 504.482 535.292 504.642 535.233 504.817C535.175 504.993 535.131 505.212 535.087 505.445C534.975 505.989 534.902 506.54 534.868 507.095C534.817 507.775 534.817 508.458 534.868 509.138C534.928 509.818 535.04 510.491 535.204 511.153C535.339 511.696 535.515 512.227 535.729 512.744C535.802 512.963 535.905 513.153 535.978 513.328C536.051 513.503 536.138 513.649 536.197 513.766L536.401 514.116C536.366 513.983 536.312 513.855 536.24 513.737C536.24 513.62 536.124 513.474 536.051 513.299C535.978 513.124 535.89 512.934 535.817 512.7C535.621 512.186 535.46 511.66 535.335 511.124C535.178 510.465 535.066 509.797 535 509.124C534.956 508.453 534.956 507.78 535 507.109C535.036 506.556 535.104 506.005 535.204 505.46C535.235 505.253 535.279 505.048 535.335 504.847C535.335 504.657 535.408 504.496 535.438 504.379C535.467 504.263 535.525 503.971 535.525 503.971Z" fill="#263238"/>
<path d="M539.423 532.203C539.423 532.203 544.795 526.962 556.02 526.962C567.246 526.962 572.998 532.203 572.998 532.203C567.932 535.259 562.127 536.875 556.21 536.875C550.293 536.875 544.489 535.259 539.423 532.203Z" fill="#FFC727"/>
<path d="M377.082 537.458H488.667C489.985 537.46 491.29 537.202 492.507 536.698C493.725 536.195 494.831 535.456 495.763 534.525C496.694 533.593 497.433 532.487 497.936 531.269C498.44 530.052 498.698 528.747 498.696 527.429V495.052L511.002 484.132H377.082C375.765 484.132 374.461 484.392 373.245 484.896C372.028 485.4 370.922 486.139 369.991 487.07C369.06 488.001 368.321 489.107 367.817 490.323C367.313 491.54 367.054 492.844 367.054 494.161V527.429C367.052 528.747 367.31 530.052 367.813 531.269C368.316 532.487 369.055 533.593 369.987 534.525C370.918 535.456 372.025 536.195 373.242 536.698C374.46 537.202 375.765 537.46 377.082 537.458Z" fill="#EBEBEB"/>
<path d="M377.082 588.097H488.667C489.985 588.097 491.291 587.837 492.508 587.333C493.726 586.828 494.832 586.088 495.764 585.155C496.695 584.222 497.433 583.115 497.937 581.896C498.44 580.678 498.698 579.372 498.696 578.054V567.325L511.002 556.406H377.082C375.765 556.406 374.461 556.665 373.245 557.169C372.028 557.673 370.922 558.412 369.991 559.343C369.06 560.274 368.321 561.38 367.817 562.597C367.313 563.813 367.054 565.117 367.054 566.434V578.112C367.065 580.765 368.127 583.304 370.006 585.175C371.886 587.047 374.43 588.097 377.082 588.097Z" fill="#EBEBEB"/>
<path d="M483.645 499.913C483.645 500.132 460.668 500.292 432.32 500.292C403.971 500.292 380.994 500.132 380.994 499.913C380.994 499.694 403.971 499.533 432.32 499.533C460.668 499.533 483.645 499.752 483.645 499.913Z" fill="white"/>
<path d="M483.645 508.671C483.645 508.876 460.668 509.051 432.32 509.051C403.971 509.051 380.994 508.876 380.994 508.671C380.994 508.467 403.971 508.292 432.32 508.292C460.668 508.292 483.645 508.423 483.645 508.671Z" fill="white"/>
<path d="M483.645 517.298C483.645 517.503 460.668 517.678 432.32 517.678C403.971 517.678 380.994 517.503 380.994 517.298C380.994 517.094 403.971 516.919 432.32 516.919C460.668 516.919 483.645 517.079 483.645 517.298Z" fill="white"/>
<path d="M483.645 525.969C483.645 526.174 460.668 526.349 432.32 526.349C403.971 526.349 380.994 526.174 380.994 525.969C380.994 525.765 403.971 525.59 432.32 525.59C460.668 525.59 483.645 525.75 483.645 525.969Z" fill="white"/>
<path d="M483.996 572.711C483.996 572.916 461.252 573.091 433.21 573.091C405.168 573.091 382.41 572.916 382.41 572.711C382.41 572.507 405.153 572.332 433.21 572.332C461.267 572.332 483.996 572.492 483.996 572.711Z" fill="white"/>
<path d="M110.586 551.574C112.552 552.047 114.403 552.913 116.026 554.12C117.649 555.327 119.011 556.849 120.031 558.595C122.049 562.111 123.242 566.039 123.52 570.084C124.264 577.85 121.564 586.419 118.206 593.44C110.63 589.207 107.112 579.791 105.623 574.901C103.273 567.179 103.711 551.778 110.586 551.545" fill="#455A64"/>
<path d="M128.279 604.417C127.374 602.349 127.032 600.078 127.289 597.834C127.545 595.591 128.39 593.456 129.738 591.644C131.126 589.861 132.855 588.373 134.826 587.268C136.796 586.162 138.967 585.462 141.212 585.207C142.22 584.989 143.262 584.99 144.269 585.209C145.277 585.428 146.225 585.86 147.051 586.477C147.723 587.19 148.19 588.069 148.406 589.025C148.622 589.98 148.577 590.975 148.277 591.907C147.657 593.764 146.56 595.425 145.095 596.724C140.292 601.367 134.789 604.972 128.133 604.417" fill="#455A64"/>
<path d="M125.008 629.423C124.922 628.893 124.888 628.355 124.906 627.818C124.906 626.679 124.906 625.205 124.789 623.438C124.492 618.598 124.985 613.741 126.249 609.059C127.606 604.364 130.191 600.116 133.738 596.754C134.823 595.754 136.024 594.887 137.314 594.17C137.658 593.973 138.014 593.798 138.38 593.644C138.5 593.571 138.634 593.521 138.774 593.498C137.073 594.52 135.479 595.708 134.015 597.046C130.588 600.419 128.077 604.608 126.716 609.22C125.46 613.851 124.904 618.643 125.066 623.438C125.066 625.292 125.066 626.781 125.066 627.818C125.086 628.353 125.067 628.89 125.008 629.423Z" fill="#263238"/>
<path d="M111.286 563.34C111.379 563.551 111.453 563.771 111.505 563.996C111.651 564.493 111.826 565.135 112.031 565.923C112.483 567.602 113.111 570.04 113.841 573.062C115.3 579.105 117.257 587.484 119.183 596.768C121.11 606.052 122.658 614.519 123.694 620.65C124.205 623.716 124.599 626.197 124.862 627.949C124.979 628.766 125.066 629.409 125.139 629.934C125.162 630.167 125.162 630.402 125.139 630.635C125.064 630.411 125.005 630.182 124.964 629.949C124.862 629.438 124.745 628.796 124.585 627.978C124.249 626.212 123.796 623.745 123.242 620.752C122.103 614.636 120.497 606.155 118.57 596.914C116.643 587.674 114.775 579.251 113.403 573.193C112.717 570.274 112.162 567.777 111.768 566.011C111.593 565.208 111.447 564.551 111.344 564.055C111.297 563.82 111.278 563.579 111.286 563.34Z" fill="#263238"/>
<path d="M118.206 611.381C116.45 606.957 113.668 603.015 110.09 599.878C106.511 596.741 102.238 594.499 97.623 593.338C95.2728 592.768 92.3532 592.695 90.9227 594.652C89.4921 596.608 90.4993 599.381 91.8277 601.41C94.6677 605.583 98.676 608.824 103.35 610.727C108.025 612.63 113.157 613.112 118.104 612.11" fill="#455A64"/>
<path d="M100.192 600.243C100.686 600.304 101.175 600.407 101.652 600.549C102.23 600.684 102.8 600.85 103.36 601.045C104.002 601.279 104.82 601.483 105.564 601.848C106.309 602.213 107.257 602.564 108.148 603.06C109.125 603.555 110.071 604.111 110.98 604.724C113.073 606.113 114.998 607.739 116.717 609.57C118.402 611.427 119.871 613.469 121.096 615.658C121.636 616.603 122.123 617.578 122.556 618.577C122.93 619.454 123.256 620.351 123.534 621.263C123.826 622.081 123.943 622.869 124.118 623.54C124.258 624.118 124.365 624.703 124.439 625.292C124.528 625.774 124.577 626.262 124.585 626.752C124.453 626.752 124.22 624.621 123.125 621.336C122.836 620.448 122.5 619.576 122.118 618.723C121.685 617.724 121.198 616.749 120.658 615.804C119.42 613.665 117.951 611.668 116.279 609.848C114.582 608.056 112.704 606.447 110.673 605.045C109.71 604.432 108.805 603.834 107.9 603.381C107.082 602.916 106.239 602.497 105.374 602.126C102.265 600.841 100.148 600.359 100.192 600.243Z" fill="#263238"/>
<path d="M146.585 172.486L141.184 155.626C148.866 143.16 151.607 128.271 148.869 113.886C146.131 99.5013 138.111 86.661 126.385 77.8893C114.66 69.1177 100.078 65.0491 85.5052 66.4834C70.9325 67.9176 57.4233 74.751 47.6331 85.6402C37.843 96.5295 32.4801 110.687 32.5986 125.33C32.7171 139.972 38.3085 154.041 48.2736 164.77C58.2387 175.5 71.8568 182.114 86.4508 183.312C101.045 184.51 115.559 180.206 127.141 171.246L146.585 172.486Z" fill="#FAFAFA"/>
<path d="M146.585 172.486H145.359L141.651 172.297L127.053 171.494C127.031 171.494 127.009 171.489 126.988 171.48C126.968 171.471 126.949 171.458 126.934 171.442C126.919 171.425 126.907 171.406 126.9 171.384C126.893 171.363 126.89 171.341 126.893 171.319C126.886 171.29 126.886 171.26 126.893 171.231L127.126 171.465C116.983 179.387 104.509 183.744 91.6391 183.858C88.3886 183.841 85.1438 183.582 81.9316 183.084C67.0061 180.748 53.5627 172.729 44.4155 160.706C39.3211 153.938 35.7326 146.158 33.8906 137.89C31.8889 129.098 31.9689 119.96 34.1242 111.205C34.4015 110.096 34.6935 108.972 34.9854 107.862C35.2774 106.753 35.7591 105.673 36.1386 104.578C36.5085 103.471 36.9373 102.384 37.4232 101.323C37.9196 100.272 38.4305 99.2205 38.883 98.1549C39.3853 97.0896 39.9609 96.0604 40.6055 95.0748L42.4594 92.0385L44.5907 89.1189L45.6709 87.6591C46.0359 87.192 46.4592 86.7687 46.8533 86.3162C53.1661 79.0581 61.1742 73.4719 70.1659 70.0543C78.7258 66.7927 87.9177 65.5295 97.0402 66.3611C105.612 67.2134 113.891 69.9447 121.287 74.3607C134.431 82.167 144.018 94.7856 148.015 109.541C148.86 112.703 149.465 115.923 149.825 119.176C150.059 122.216 150.113 125.267 149.986 128.314C149.427 138.023 146.446 147.437 141.315 155.699V155.568C143.038 161.056 144.351 165.29 145.256 168.18C145.694 169.64 146.015 170.647 146.249 171.392L146.57 172.472C146.57 172.472 146.424 172.078 146.176 171.348L145.11 168.122C144.176 165.202 142.789 161.086 141.008 155.67C140.993 155.627 140.993 155.581 141.008 155.538C146.043 147.295 148.947 137.93 149.461 128.285C149.573 125.266 149.504 122.244 149.256 119.234C148.892 116.01 148.282 112.818 147.431 109.687C144.3 98.328 137.806 88.182 128.802 80.5822C119.798 72.9824 108.705 68.2844 96.9818 67.1056C87.9743 66.2812 78.8974 67.5244 70.4432 70.7404C61.5881 74.1288 53.7024 79.6433 47.481 86.7979C47.1015 87.2504 46.6782 87.6592 46.3132 88.1263L45.2476 89.5861L43.1455 92.4034L41.3354 95.4105C40.6932 96.3926 40.1177 97.4167 39.6129 98.476C39.1166 99.5125 38.6202 100.564 38.1531 101.6C37.6769 102.647 37.2578 103.719 36.8977 104.811C36.5182 105.892 36.0656 106.957 35.7445 108.052C35.4233 109.147 35.1752 110.256 34.8978 111.351C32.7812 119.972 32.6912 128.966 34.6351 137.627C37.1645 149.001 43.0521 159.353 51.5347 167.341C60.0173 175.329 70.7038 180.585 82.209 182.427C85.392 182.927 88.607 183.196 91.8288 183.23C94.8362 183.217 97.838 182.969 100.806 182.486C110.371 180.927 119.399 177.02 127.082 171.114C127.097 171.098 127.115 171.086 127.135 171.077C127.156 171.068 127.177 171.064 127.199 171.064C127.221 171.064 127.243 171.068 127.263 171.077C127.283 171.086 127.301 171.098 127.316 171.114C127.337 171.144 127.349 171.18 127.349 171.216C127.349 171.253 127.337 171.289 127.316 171.319L127.199 171.056L141.622 172.048L145.359 172.311L146.585 172.486Z" fill="#263238"/>
<path d="M74.823 124.956C74.823 126.131 74.4745 127.28 73.8217 128.257C73.1688 129.234 72.2409 129.996 71.1553 130.445C70.0697 130.895 68.8751 131.013 67.7226 130.783C66.5701 130.554 65.5115 129.988 64.6806 129.157C63.8497 128.326 63.2838 127.268 63.0546 126.115C62.8253 124.963 62.943 123.768 63.3927 122.683C63.8424 121.597 64.6039 120.669 65.5809 120.016C66.5579 119.363 67.7066 119.015 68.8817 119.015C70.4562 119.019 71.9652 119.646 73.0785 120.759C74.1919 121.873 74.8191 123.382 74.823 124.956Z" fill="#263238"/>
<path d="M98.6169 124.956C98.6169 126.131 98.2685 127.28 97.6156 128.257C96.9628 129.234 96.0349 129.996 94.9493 130.445C93.8636 130.895 92.669 131.013 91.5166 130.783C90.3641 130.554 89.3054 129.988 88.4745 129.157C87.6436 128.326 87.0778 127.268 86.8485 126.115C86.6193 124.963 86.7369 123.768 87.1866 122.683C87.6363 121.597 88.3978 120.669 89.3748 120.016C90.3519 119.363 91.5006 119.015 92.6756 119.015C94.2502 119.019 95.7591 119.646 96.8725 120.759C97.9858 121.873 98.613 123.382 98.6169 124.956Z" fill="#263238"/>
<path d="M122.353 121.993C122.939 123.011 123.21 124.179 123.132 125.351C123.054 126.522 122.631 127.644 121.916 128.576C121.201 129.507 120.225 130.205 119.114 130.583C118.002 130.96 116.803 131 115.669 130.696C114.534 130.393 113.515 129.76 112.74 128.878C111.965 127.996 111.469 126.904 111.315 125.74C111.16 124.576 111.353 123.392 111.871 122.338C112.388 121.284 113.207 120.407 114.222 119.818C114.899 119.425 115.646 119.17 116.421 119.067C117.196 118.964 117.984 119.015 118.739 119.217C119.495 119.419 120.203 119.769 120.823 120.245C121.443 120.721 121.963 121.315 122.353 121.993Z" fill="#263238"/>
<path d="M124.717 387.51L63.2317 381.146L37.1894 322.04L16.957 327.309C16.957 327.309 31.9051 389.773 48.634 399.451C65.363 409.13 122.513 410.867 122.513 410.867L124.717 387.51Z" fill="#FFC727"/>
<path d="M157.404 417.573C167.409 406.316 166.394 389.081 155.137 379.076C143.881 369.072 126.645 370.087 116.64 381.343C106.636 392.6 107.651 409.835 118.907 419.84C130.164 429.845 147.399 428.83 157.404 417.573Z" fill="#263238"/>
<path d="M137.022 426.749C130.703 426.749 124.58 424.558 119.695 420.549C114.811 416.541 111.468 410.962 110.235 404.765C109.002 398.567 109.956 392.134 112.935 386.562C115.914 380.989 120.733 376.621 126.57 374.203C132.408 371.785 138.904 371.466 144.951 373.3C150.997 375.135 156.221 379.009 159.732 384.263C163.242 389.517 164.822 395.825 164.203 402.114C163.584 408.402 160.803 414.281 156.335 418.749C153.805 421.293 150.795 423.31 147.48 424.683C144.165 426.056 140.61 426.759 137.022 426.749ZM137.022 372.212C130.72 372.205 124.611 374.384 119.736 378.377C114.86 382.37 111.52 387.93 110.284 394.109C109.048 400.289 109.993 406.705 112.958 412.266C115.922 417.827 120.724 422.188 126.543 424.606C132.363 427.024 138.841 427.349 144.873 425.526C150.906 423.703 156.119 419.845 159.626 414.609C163.133 409.373 164.716 403.083 164.105 396.811C163.494 390.539 160.728 384.672 156.277 380.211C153.755 377.671 150.756 375.656 147.451 374.283C144.146 372.91 140.601 372.206 137.022 372.212Z" fill="#263238"/>
<path d="M57.72 404.121C68.7029 401.484 75.4688 390.443 72.832 379.46C70.1953 368.477 59.1544 361.711 48.1715 364.348C37.1886 366.985 30.4227 378.026 33.0594 389.009C35.6962 399.991 46.7371 406.757 57.72 404.121Z" fill="#263238"/>
<path d="M37.4155 326.819C43.9428 320.291 43.9428 309.708 37.4155 303.181C30.8881 296.654 20.3052 296.654 13.7778 303.181C7.25046 309.708 7.25045 320.291 13.7778 326.819C20.3052 333.346 30.8881 333.346 37.4155 326.819Z" fill="#263238"/>
<path d="M51.6484 305.954L37.8856 317.576L32.9222 311.699L46.6849 300.077C47.4096 299.465 48.3477 299.166 49.2929 299.245C50.2381 299.325 51.1129 299.777 51.7249 300.502L52.0639 300.903C52.3692 301.262 52.6007 301.677 52.7451 302.125C52.8895 302.573 52.9439 303.046 52.9053 303.515C52.8667 303.984 52.7358 304.441 52.5201 304.86C52.3044 305.278 52.0081 305.65 51.6484 305.954Z" fill="#263238"/>
<path d="M34.167 284.67V302.187C34.167 302.322 34.1132 302.452 34.0174 302.548C33.9215 302.644 33.7916 302.698 33.6561 302.698H26.9995C26.864 302.698 26.7341 302.644 26.6383 302.548C26.5424 302.452 26.4886 302.322 26.4886 302.187V284.67C26.4886 283.721 26.8654 282.811 27.5361 282.141C28.2068 281.47 29.1165 281.093 30.065 281.093H30.5906C31.5391 281.093 32.4488 281.47 33.1195 282.141C33.7902 282.811 34.167 283.721 34.167 284.67Z" fill="#263238"/>
<path d="M21.772 284.736L25.5962 301.831C25.6258 301.963 25.6017 302.101 25.5291 302.216C25.4565 302.33 25.3414 302.411 25.2092 302.441L18.7132 303.894C18.581 303.924 18.4424 303.899 18.328 303.827C18.2136 303.754 18.1327 303.639 18.1031 303.507L14.2788 286.412C14.0718 285.487 14.2409 284.517 14.749 283.716C15.2571 282.915 16.0626 282.348 16.9882 282.141L17.501 282.027C18.4267 281.819 19.3967 281.989 20.1976 282.497C20.9986 283.005 21.5649 283.81 21.772 284.736Z" fill="#263238"/>
<path d="M8.43763 289.02L17.1962 304.19C17.264 304.308 17.2823 304.447 17.2473 304.578C17.2122 304.709 17.1266 304.82 17.0092 304.888L11.2445 308.216C11.1271 308.284 10.9877 308.303 10.8568 308.267C10.7259 308.232 10.6143 308.147 10.5466 308.029L1.78794 292.859C1.31367 292.038 1.18516 291.061 1.43066 290.145C1.67615 289.229 2.27557 288.448 3.09702 287.974L3.55213 287.711C4.37358 287.236 5.34979 287.108 6.266 287.353C7.1822 287.599 7.96337 288.198 8.43763 289.02Z" fill="#263238"/>
<path d="M391.94 540.626L410.344 532.799L357.24 407.937L338.836 415.764L391.94 540.626Z" fill="#FFC727"/>
<path d="M359.878 419.868C369.612 408.377 368.189 391.171 356.698 381.436C345.207 371.702 328 373.125 318.266 384.616C308.531 396.107 309.955 413.314 321.446 423.048C332.937 432.783 350.143 431.359 359.878 419.868Z" fill="#263238"/>
<path d="M339.128 429.61C334.849 429.612 330.631 428.61 326.811 426.684C322.991 424.758 319.676 421.962 317.134 418.521C314.592 415.08 312.894 411.09 312.175 406.873C311.457 402.655 311.738 398.328 312.998 394.24C314.491 389.417 317.291 385.103 321.089 381.777C324.887 378.451 329.532 376.243 334.509 375.399C339.486 374.555 344.6 375.107 349.282 376.995C353.964 378.883 358.031 382.032 361.031 386.092C364.03 390.153 365.845 394.965 366.274 399.995C366.702 405.025 365.727 410.076 363.458 414.585C361.188 419.094 357.713 422.886 353.418 425.538C349.122 428.191 344.176 429.6 339.128 429.61ZM339.128 375.044C334.088 375.049 329.148 376.452 324.859 379.097C320.569 381.742 317.097 385.526 314.829 390.026C312.562 394.527 311.587 399.568 312.014 404.59C312.441 409.612 314.252 414.416 317.247 418.47C320.242 422.523 324.302 425.666 328.977 427.549C333.651 429.432 338.757 429.982 343.725 429.136C348.693 428.291 353.329 426.084 357.118 422.76C360.907 419.437 363.699 415.128 365.184 410.312C367.305 403.411 366.601 395.95 363.226 389.568C359.852 383.186 354.083 378.403 347.185 376.27C344.548 375.453 341.801 375.04 339.04 375.044H339.128Z" fill="#263238"/>
<path d="M394.284 483.773C397.308 472.89 390.937 461.617 380.055 458.592C369.172 455.568 357.898 461.939 354.874 472.821C351.85 483.704 358.221 494.978 369.103 498.002C379.986 501.026 391.259 494.655 394.284 483.773Z" fill="#263238"/>
<path d="M405.417 558.668C414.648 558.668 422.131 551.185 422.131 541.954C422.131 532.723 414.648 525.24 405.417 525.24C396.185 525.24 388.702 532.723 388.702 541.954C388.702 551.185 396.185 558.668 405.417 558.668Z" fill="#263238"/>
<path d="M383.556 558.786L392.915 543.429L399.484 547.433L390.125 562.79C389.631 563.6 388.836 564.181 387.914 564.404C386.992 564.628 386.02 564.476 385.21 563.983L384.761 563.709C384.358 563.466 384.007 563.145 383.728 562.766C383.449 562.386 383.248 561.956 383.136 561.498C383.024 561.041 383.003 560.566 383.075 560.1C383.147 559.635 383.311 559.189 383.556 558.786Z" fill="#263238"/>
<path d="M406.859 573.433L401.312 556.817C401.269 556.689 401.279 556.549 401.34 556.427C401.4 556.306 401.507 556.214 401.635 556.171L407.949 554.063C408.078 554.02 408.218 554.03 408.339 554.091C408.46 554.151 408.553 554.258 408.595 554.386L414.142 571.002C414.285 571.449 414.339 571.921 414.3 572.389C414.262 572.857 414.131 573.313 413.916 573.73C413.701 574.148 413.406 574.519 413.047 574.823C412.689 575.126 412.274 575.356 411.827 575.499L411.328 575.666C410.439 575.95 409.474 575.876 408.639 575.459C407.804 575.042 407.165 574.315 406.859 573.433Z" fill="#263238"/>
<path d="M418.607 569.451L409.567 554.447C409.532 554.389 409.509 554.326 409.499 554.259C409.489 554.193 409.493 554.125 409.509 554.06C409.525 553.995 409.554 553.934 409.594 553.88C409.633 553.826 409.683 553.78 409.741 553.746L415.443 550.31C415.5 550.276 415.564 550.253 415.63 550.243C415.696 550.233 415.764 550.236 415.829 550.252C415.894 550.268 415.956 550.297 416.01 550.337C416.064 550.377 416.109 550.427 416.144 550.484L425.184 565.488C425.674 566.301 425.82 567.274 425.592 568.195C425.364 569.116 424.779 569.908 423.967 570.397L423.516 570.669C422.704 571.158 421.73 571.305 420.81 571.077C419.889 570.848 419.097 570.264 418.607 569.451Z" fill="#263238"/>
<path d="M429.892 561.178L416.781 549.562C416.679 549.472 416.618 549.346 416.61 549.21C416.601 549.075 416.647 548.942 416.737 548.841L421.142 543.869C421.232 543.768 421.358 543.706 421.493 543.698C421.629 543.69 421.762 543.736 421.863 543.826L434.975 555.442C435.685 556.071 436.116 556.956 436.173 557.903C436.23 558.85 435.909 559.781 435.28 560.491L434.931 560.884C434.301 561.59 433.417 562.017 432.473 562.072C431.528 562.127 430.6 561.806 429.892 561.178Z" fill="#263238"/>
<path d="M128.922 371.073C128.922 371.073 130.893 562.507 238.317 566.244C345.741 569.982 350.252 372.446 350.252 371.073C350.252 371.073 337.567 342.535 239.587 343.644C141.607 344.754 128.922 371.073 128.922 371.073Z" fill="#FFC727"/>
<path d="M189.239 337.382H280.036C285.962 337.382 290.766 332.578 290.766 326.653V325.091C290.766 319.165 285.962 314.361 280.036 314.361H189.239C183.313 314.361 178.509 319.165 178.509 325.091V326.653C178.509 332.578 183.313 337.382 189.239 337.382Z" fill="#263238"/>
<path d="M230.725 167.158H238.564V127.525H230.725V167.158Z" fill="#263238"/>
<path d="M354.505 285.147C366.883 282.205 374.532 269.787 371.59 257.409C368.648 245.032 356.229 237.383 343.852 240.325C331.475 243.267 323.826 255.685 326.768 268.063C329.71 280.44 342.128 288.089 354.505 285.147Z" fill="#FFC727"/>
<path d="M121.748 283.651C134.155 280.837 141.932 268.498 139.117 256.091C136.303 243.684 123.964 235.908 111.557 238.722C99.1505 241.536 91.3741 253.875 94.1883 266.282C97.0025 278.689 109.342 286.465 121.748 283.651Z" fill="#FFC727"/>
<path d="M230.083 158.56C230.083 158.56 136.424 157.436 121.622 238.614C106.82 319.792 185.998 321.251 208.785 322.784C219.105 323.485 241.206 323.558 260.709 323.208C303.889 322.463 334.398 314.113 344.777 274.057C346.013 269.36 346.79 264.555 347.098 259.708C349.828 215.739 320.151 156.4 230.083 158.56Z" fill="#FFC727"/>
<path d="M298.02 282.115L161.955 284.232C158.56 284.292 155.187 283.681 152.028 282.436C148.869 281.191 145.987 279.335 143.547 276.974C141.106 274.613 139.155 271.795 137.805 268.679C136.455 265.563 135.733 262.212 135.68 258.817C135.622 255.421 136.234 252.048 137.481 248.889C138.728 245.73 140.585 242.848 142.947 240.407C145.309 237.967 148.128 236.016 151.245 234.666C154.361 233.317 157.713 232.594 161.109 232.541L297.174 230.425C300.569 230.363 303.944 230.972 307.103 232.216C310.263 233.461 313.146 235.317 315.587 237.678C318.028 240.039 319.979 242.859 321.328 245.975C322.677 249.091 323.398 252.444 323.45 255.839C323.51 259.235 322.899 262.61 321.653 265.77C320.406 268.929 318.549 271.812 316.187 274.253C313.825 276.694 311.004 278.645 307.887 279.994C304.77 281.343 301.417 282.064 298.02 282.115Z" fill="#263238"/>
<path d="M190.232 256C189.915 257.609 189.129 259.088 187.972 260.25C186.815 261.412 185.34 262.204 183.732 262.528C182.125 262.852 180.457 262.691 178.941 262.067C177.425 261.443 176.127 260.384 175.213 259.023C174.299 257.661 173.809 256.06 173.805 254.42C173.801 252.78 174.283 251.176 175.19 249.811C176.098 248.445 177.39 247.379 178.903 246.748C180.416 246.116 182.083 245.947 183.692 246.263C184.761 246.473 185.778 246.891 186.685 247.494C187.592 248.097 188.372 248.872 188.979 249.776C189.587 250.681 190.01 251.696 190.225 252.763C190.44 253.831 190.442 254.931 190.232 256Z" fill="white"/>
<path d="M285.248 254.482C284.934 256.092 284.15 257.573 282.994 258.737C281.839 259.901 280.364 260.696 278.756 261.022C277.148 261.348 275.48 261.189 273.962 260.566C272.444 259.943 271.146 258.884 270.23 257.523C269.314 256.162 268.823 254.56 268.818 252.92C268.814 251.279 269.296 249.674 270.203 248.308C271.111 246.941 272.404 245.875 273.917 245.243C275.431 244.612 277.099 244.443 278.708 244.76C280.864 245.183 282.764 246.445 283.99 248.268C285.216 250.09 285.668 252.325 285.248 254.482Z" fill="white"/>
<path d="M271.57 447.098C271.037 454.403 268.349 461.386 263.848 467.164C259.346 472.941 253.232 477.255 246.279 479.558C239.326 481.861 231.847 482.051 224.786 480.103C217.725 478.155 211.401 474.158 206.612 468.616C201.823 463.074 198.785 456.236 197.882 448.967C196.979 441.699 198.252 434.326 201.539 427.78C204.826 421.235 209.981 415.812 216.35 412.196C222.72 408.579 230.019 406.933 237.324 407.465C247.12 408.183 256.23 412.76 262.652 420.192C269.073 427.624 272.281 437.302 271.57 447.098Z" fill="#263238"/>
<path d="M261.541 446.368C261.152 451.692 259.192 456.781 255.91 460.992C252.628 465.202 248.171 468.345 243.103 470.022C238.035 471.7 232.584 471.837 227.438 470.416C222.292 468.995 217.683 466.08 214.194 462.04C210.705 457.999 208.492 453.015 207.836 447.717C207.179 442.419 208.109 437.045 210.506 432.276C212.904 427.506 216.662 423.555 221.306 420.921C225.949 418.287 231.27 417.089 236.594 417.479C240.129 417.736 243.58 418.688 246.747 420.279C249.915 421.87 252.738 424.07 255.055 426.753C257.372 429.436 259.137 432.55 260.25 435.915C261.363 439.281 261.802 442.833 261.541 446.368Z" fill="white"/>
<path d="M248.534 451.273C248.328 449.798 248.245 448.309 248.286 446.821C248.213 444.033 248.155 440.047 248.155 435.143L248.447 435.683L234.564 427.581H235.338L221.324 435.449C220.945 436.091 221.835 434.588 221.748 434.748V436.821V438.909C221.748 440.281 221.748 441.653 221.675 442.996C221.675 445.682 221.572 448.281 221.529 450.791L221.149 450.12L234.871 458.499H234.258C238.535 456.192 242.068 454.353 244.476 453.098C245.772 452.36 247.124 451.725 248.52 451.2C247.431 452.087 246.258 452.865 245.016 453.521C242.651 454.981 239.177 457.039 234.798 459.565L234.491 459.74L234.185 459.565L220.288 451.463L219.908 451.244V450.777C219.908 448.266 219.937 445.668 219.996 442.982C219.996 441.639 219.996 440.281 219.996 438.894V436.821V434.807C219.908 434.967 220.799 433.478 220.419 434.106L234.477 426.311L234.885 426.092L235.265 426.326L248.972 434.705L249.279 434.894V435.245C249.118 440.296 248.958 444.354 248.812 447.113C248.849 448.505 248.756 449.898 248.534 451.273Z" fill="#FFC727"/>
<path d="M243.789 135.858C248.834 130.812 248.834 122.633 243.789 117.587C238.744 112.542 230.564 112.542 225.519 117.587C220.474 122.633 220.474 130.812 225.519 135.858C230.564 140.903 238.744 140.903 243.789 135.858Z" fill="#FFC727"/>
<path d="M214.011 252.175C214.624 252.248 214.318 255.095 216.128 258.992C217.154 261.229 218.647 263.22 220.507 264.831C222.688 266.75 225.403 267.957 228.288 268.291C231.188 268.478 234.078 267.786 236.579 266.306C238.696 265.075 240.527 263.408 241.951 261.415C244.433 257.956 244.652 255.051 245.265 255.095C245.513 255.095 245.761 255.825 245.761 257.197C245.706 259.152 245.207 261.069 244.302 262.802C242.942 265.423 240.931 267.649 238.462 269.269C235.411 271.419 231.694 272.414 227.976 272.074C224.259 271.734 220.783 270.083 218.172 267.415C216.04 265.377 214.471 262.822 213.617 260C213.009 258.116 212.849 256.117 213.15 254.16C213.398 252.803 213.778 252.131 214.011 252.175Z" fill="white"/>
<path d="M338.719 289.998C338.573 289.998 340.252 287.37 341.872 282.772C343.887 276.75 345.162 270.505 345.667 264.174C346.252 257.867 346.398 251.526 346.105 245.197C346.003 242.76 345.886 240.818 345.77 239.358C345.671 238.652 345.646 237.938 345.697 237.227C345.884 237.915 346.006 238.619 346.061 239.329C346.266 240.687 346.47 242.657 346.645 245.168C347.103 251.547 347.03 257.953 346.426 264.32C345.913 270.71 344.553 277.003 342.383 283.035C341.696 284.854 340.866 286.616 339.901 288.304C339.556 288.902 339.161 289.468 338.719 289.998Z" fill="#263238"/>
<path d="M121.797 235.899C121.715 236.608 121.563 237.307 121.345 237.986C121.155 238.643 120.951 239.446 120.761 240.409C120.571 241.373 120.279 242.424 120.104 243.636C119.592 246.449 119.251 249.291 119.082 252.146C118.886 255.639 118.935 259.141 119.228 262.627C119.554 266.107 120.12 269.56 120.922 272.962C121.592 275.745 122.43 278.485 123.432 281.166C123.826 282.319 124.279 283.327 124.644 284.232C125.009 285.137 125.359 285.896 125.651 286.509C125.984 287.139 126.258 287.799 126.469 288.48C126.053 287.901 125.692 287.285 125.388 286.64C124.976 285.911 124.601 285.16 124.264 284.392C123.856 283.516 123.359 282.509 122.936 281.356C121.852 278.682 120.955 275.936 120.25 273.137C119.396 269.703 118.8 266.209 118.469 262.685C118.172 259.165 118.142 255.627 118.382 252.102C118.585 249.222 118.985 246.359 119.579 243.533C119.797 242.322 120.104 241.256 120.352 240.307C120.6 239.358 120.834 238.555 121.053 237.899C121.246 237.213 121.495 236.544 121.797 235.899Z" fill="#263238"/>
<path d="M128.425 370.913L128.98 371.073L130.614 371.628L136.833 373.818L141.329 375.423C142.979 375.978 144.803 376.504 146.745 377.102C150.642 378.255 155.036 379.759 160.029 380.927L167.809 382.927C170.525 383.613 173.386 384.124 176.334 384.766C182.174 386.109 188.582 387.029 195.311 388.109C209.865 390.105 224.532 391.154 239.221 391.247C253.911 391.161 268.579 390.113 283.131 388.109C289.817 387.029 296.182 386.124 302.108 384.766C305.028 384.138 307.947 383.627 310.633 382.941L318.428 380.941C323.406 379.774 327.8 378.27 331.698 377.117C333.639 376.518 335.464 375.993 337.113 375.438L341.61 373.832L347.828 371.643L349.463 371.088C349.647 371.015 349.838 370.962 350.032 370.927L349.492 371.161L347.887 371.789L341.712 374.11L337.113 375.832C335.479 376.402 333.654 376.942 331.712 377.569C327.815 378.766 323.435 380.299 318.443 381.511L310.648 383.554C307.947 384.255 305.072 384.781 302.123 385.437C296.284 386.81 289.861 387.744 283.146 388.853C268.563 390.899 253.859 391.967 239.134 392.05C224.413 391.957 209.715 390.884 195.136 388.839C188.436 387.744 181.998 386.795 176.159 385.423C173.24 384.766 170.32 384.24 167.634 383.54L159.839 381.496C154.847 380.285 150.467 378.752 146.57 377.555C144.628 376.927 142.818 376.387 141.169 375.818L136.687 374.139L130.512 371.818L128.907 371.19C128.737 371.113 128.576 371.02 128.425 370.913Z" fill="#263238"/>
<g opacity="0.3">
<path opacity="0.3" d="M128.922 371.073C128.922 371.073 141.607 344.797 239.587 343.644C337.567 342.491 350.252 371.073 350.252 371.073C350.252 371.073 251.367 419.815 128.922 371.073Z" fill="black"/>
</g>
<path d="M218.215 164.633C218.103 164.643 217.991 164.643 217.879 164.633L216.901 164.735C216.025 164.823 214.741 164.852 213.091 165.042C208.437 165.493 203.818 166.259 199.267 167.333C175.728 172.724 154.965 186.521 140.876 206.134C134.07 215.559 128.916 226.073 125.637 237.227C125.126 238.804 124.848 240.059 124.6 240.891L124.323 241.855C124.296 241.966 124.257 242.074 124.206 242.176C124.187 242.065 124.187 241.951 124.206 241.84C124.206 241.577 124.323 241.256 124.41 240.862C124.615 240.015 124.834 238.745 125.301 237.14C126.519 232.604 128.081 228.168 129.972 223.87C136.212 209.586 145.711 196.963 157.708 187.011C169.756 177.134 183.949 170.215 199.15 166.808C203.728 165.768 208.379 165.08 213.062 164.75C214.726 164.604 215.982 164.618 216.887 164.574H217.879C218.113 164.604 218.215 164.618 218.215 164.633Z" fill="white"/>
<path d="M126.586 277.006C126.001 276.102 125.549 275.119 125.243 274.086C123.511 269.208 122.704 264.05 122.863 258.875C122.822 257.801 122.95 256.727 123.243 255.693C123.477 255.693 123.155 260.569 124.09 266.466C125.024 272.364 126.805 276.918 126.586 277.006Z" fill="white"/>
<path d="M102.017 269.459C102.017 269.459 101.682 269.225 101.229 268.671C100.584 267.884 100.031 267.027 99.5797 266.116C98.0208 263.098 97.4243 259.675 97.8706 256.308C98.317 252.941 99.7846 249.792 102.076 247.285C102.747 246.517 103.506 245.831 104.339 245.241C104.624 245.001 104.95 244.813 105.302 244.687C105.39 244.803 104.076 245.694 102.485 247.606C100.396 250.107 99.0601 253.149 98.6312 256.379C98.2023 259.609 98.6982 262.894 100.061 265.853C101.083 268.174 102.12 269.371 102.017 269.459Z" fill="white"/>
<path d="M235.484 117.716C234.345 117.59 233.197 117.566 232.054 117.643C230.692 117.762 229.376 118.192 228.207 118.899C227.037 119.606 226.045 120.572 225.306 121.722C224.568 122.872 224.103 124.176 223.946 125.533C223.79 126.891 223.947 128.267 224.405 129.555C224.799 130.623 225.287 131.653 225.864 132.635C225.864 132.635 225.572 132.459 225.164 131.992C224.603 131.317 224.159 130.552 223.85 129.73C223.293 128.367 223.073 126.889 223.207 125.423C223.342 123.957 223.828 122.544 224.625 121.306C225.421 120.067 226.504 119.038 227.782 118.307C229.06 117.575 230.495 117.162 231.966 117.103C232.84 117.042 233.718 117.126 234.565 117.351C235.221 117.453 235.484 117.672 235.484 117.716Z" fill="white"/>
<path d="M362.717 251.752C362.557 251.927 360.294 249.752 356.878 248.117C353.462 246.482 350.353 246 350.382 245.767C352.762 245.708 355.114 246.282 357.199 247.431C359.394 248.349 361.3 249.842 362.717 251.752Z" fill="white"/>
<path d="M162.496 507.314C162.429 507.227 162.371 507.134 162.321 507.036L161.839 506.175C161.401 505.343 160.817 504.234 160.058 502.818C159.679 502.088 159.27 501.27 158.803 500.394L157.431 497.475C156.438 495.358 155.329 492.949 154.234 490.176C153.679 488.818 153.095 487.388 152.482 485.913C151.869 484.439 151.343 482.833 150.745 481.213C149.489 477.987 148.424 474.44 147.183 470.761C144.891 463.316 142.643 455.068 140.672 446.31C138.702 437.551 137.271 429.099 136.103 421.406C134.936 413.713 134.176 406.809 133.709 400.882C133.432 397.962 133.257 395.306 133.111 392.97C132.965 390.634 132.833 388.591 132.79 386.985C132.746 385.379 132.702 384.138 132.658 383.204V382.226C132.643 382.115 132.643 382.002 132.658 381.89C132.675 382.002 132.675 382.115 132.658 382.226L132.746 383.204C132.746 384.124 132.906 385.394 133.009 386.97C133.111 388.547 133.257 390.62 133.461 392.941C133.666 395.262 133.855 397.919 134.176 400.838C134.702 406.677 135.636 413.626 136.731 421.275C137.826 428.924 139.417 437.332 141.344 446.091C143.271 454.85 145.533 463.083 147.767 470.513C149.008 474.191 150.044 477.724 151.27 480.95C151.854 482.585 152.409 484.147 152.964 485.651L154.657 489.942C155.708 492.672 156.788 495.095 157.752 497.241L159.066 500.161C159.489 501.051 159.898 501.869 160.263 502.613L161.897 506.029L162.306 506.919C162.395 507.037 162.459 507.171 162.496 507.314Z" fill="white"/>
<path d="M105.375 388.299C101.814 388.433 98.2472 388.307 94.7043 387.919C91.1448 387.794 87.5985 387.419 84.0918 386.795C87.6533 386.66 91.2198 386.787 94.7627 387.175C98.3223 387.298 101.869 387.674 105.375 388.299Z" fill="white"/>
<path d="M50.4588 357.133C48.3885 354.117 46.5301 350.961 44.8971 347.688C43.0464 344.535 41.4172 341.257 40.0215 337.878C42.0855 340.9 43.939 344.061 45.5686 347.338C47.4288 350.482 49.063 353.756 50.4588 357.133Z" fill="white"/>
<path d="M214.318 553.34C213.743 553.33 213.171 553.261 212.61 553.136C211.066 552.861 209.54 552.49 208.041 552.026C205.815 551.349 203.639 550.514 201.531 549.53C198.962 548.292 196.492 546.857 194.144 545.238C191.822 543.58 189.635 541.739 187.604 539.735C185.959 538.087 184.437 536.321 183.05 534.451C182.099 533.203 181.236 531.891 180.466 530.524C180.151 530.044 179.891 529.53 179.692 528.991C179.809 528.918 181.035 531.035 183.473 534.13C184.906 535.929 186.452 537.635 188.101 539.239C192.141 543.164 196.777 546.426 201.837 548.902C203.904 549.901 206.029 550.774 208.202 551.515C211.939 552.771 214.347 553.194 214.318 553.34Z" fill="white"/>
<path d="M236.71 485.811C236.372 485.87 236.031 485.904 235.688 485.913C234.717 485.996 233.743 486.025 232.769 486.001C229.139 485.921 225.538 485.336 222.069 484.264C219.672 483.517 217.338 482.58 215.091 481.461C212.514 480.136 210.07 478.567 207.792 476.775C202.516 472.722 198.356 467.393 195.706 461.29C193.055 455.187 192 448.51 192.64 441.887C192.878 439.012 193.391 436.167 194.172 433.391C194.872 430.983 195.775 428.639 196.873 426.384C198.456 423.114 200.491 420.082 202.917 417.377C203.567 416.638 204.259 415.936 204.989 415.275C205.231 415.033 205.49 414.809 205.763 414.604C205.763 414.604 204.8 415.64 203.135 417.523C200.8 420.27 198.836 423.313 197.296 426.574C195.001 431.379 193.634 436.574 193.267 441.887C192.676 448.392 193.729 454.942 196.331 460.934C198.933 466.926 203 472.168 208.157 476.177C210.368 477.956 212.743 479.52 215.252 480.848C217.45 482.008 219.739 482.984 222.098 483.768C225.515 484.876 229.064 485.528 232.652 485.709C235.294 485.811 236.71 485.724 236.71 485.811Z" fill="white"/>
<path d="M59.977 370.854C59.977 370.971 58.8529 370.431 57.0574 370.008C54.6548 369.482 52.1643 369.507 49.7726 370.081C47.381 370.655 45.1504 371.762 43.248 373.321C41.7882 374.533 41.0875 375.496 40.9854 375.423C41.3859 374.458 42.0056 373.598 42.7955 372.913C44.6901 371.174 46.997 369.948 49.4978 369.35C51.9987 368.753 54.6107 368.803 57.0866 369.497C58.1417 369.721 59.1308 370.185 59.977 370.854Z" fill="white"/>
<path d="M275.541 225.71C275.541 225.914 257.615 226.089 235.514 226.089C213.413 226.089 195.473 225.914 195.473 225.71C195.473 225.505 213.399 225.33 235.514 225.33C257.63 225.33 275.541 225.476 275.541 225.71Z" fill="white"/>
<path d="M207.223 316.989C207.005 317.051 206.779 317.085 206.552 317.091L204.596 317.266C203.749 317.339 202.713 317.398 201.501 317.427C200.289 317.456 198.917 317.514 197.399 317.427C194.348 317.427 190.728 317.208 186.714 316.785C182.369 316.279 178.056 315.533 173.795 314.551C169.543 313.531 165.352 312.274 161.241 310.785C157.891 309.558 154.607 308.16 151.402 306.595C149.942 305.953 148.818 305.282 147.752 304.712C146.687 304.143 145.782 303.632 145.052 303.252L143.373 302.231C143.174 302.12 142.988 301.988 142.818 301.836C142.818 301.836 143.052 301.836 143.446 302.099L145.198 302.99C145.942 303.398 146.862 303.88 147.942 304.449C149.022 305.019 150.249 305.603 151.635 306.216C154.38 307.5 157.723 308.873 161.489 310.23C169.674 313.165 178.166 315.163 186.801 316.186C190.772 316.653 194.377 316.916 197.399 316.989C198.859 317.076 200.319 316.989 201.501 316.989C202.684 316.989 203.735 316.989 204.581 316.989H206.537C206.764 316.951 206.996 316.951 207.223 316.989Z" fill="white"/>
<path d="M323.756 382.766C323.648 382.837 323.53 382.891 323.406 382.927L322.355 383.321L318.297 384.781C316.53 385.423 314.37 386.167 311.815 386.912C309.261 387.656 306.385 388.62 303.13 389.437L298.05 390.78C296.283 391.233 294.415 391.612 292.503 392.065C288.678 392.984 284.532 393.714 280.182 394.546C261.234 397.847 241.978 399.026 222.769 398.064C218.39 397.787 214.142 397.568 210.23 397.116C208.274 396.911 206.376 396.765 204.566 396.517L199.355 395.802C196.026 395.408 193.049 394.809 190.436 394.342C187.823 393.875 185.56 393.437 183.735 393.014L179.531 392.079L178.436 391.817C178.31 391.796 178.187 391.756 178.071 391.7C178.202 391.689 178.334 391.689 178.465 391.7L179.56 391.89L183.794 392.692C185.633 393.057 187.881 393.481 190.509 393.875C193.136 394.269 196.099 394.838 199.428 395.203L204.624 395.86C206.435 396.094 208.332 396.225 210.288 396.415C214.186 396.838 218.39 397.028 222.799 397.291C231.63 397.656 241.338 397.67 251.527 397.072C261.716 396.473 271.336 395.203 280.051 393.773C284.43 392.97 288.547 392.313 292.371 391.379C294.284 390.941 296.152 390.576 297.918 390.138L302.998 388.839C306.254 388.065 309.129 387.16 311.684 386.43C314.239 385.7 316.428 384.97 318.195 384.43L322.297 383.116L323.377 382.795L323.756 382.766Z" fill="white"/>
</svg>
