<svg width="20" height="21" viewBox="0 0 20 21" fill="none" xmlns="http://www.w3.org/2000/svg">
<path d="M14.6 12.5125C14.4 12.4125 13.1 11.8125 12.9 11.7125C12.7 11.6125 12.5 11.6125 12.3 11.8125C12.1 12.0125 11.7 12.6125 11.5 12.8125C11.4 13.0125 11.2 13.0125 11 12.9125C10.3 12.6125 9.6 12.2125 9 11.7125C8.5 11.2125 8 10.6125 7.6 10.0125C7.5 9.81255 7.6 9.61255 7.7 9.51255C7.8 9.41255 7.9 9.21255 8.1 9.11255C8.2 9.01255 8.3 8.81255 8.3 8.71255C8.4 8.61255 8.4 8.41255 8.3 8.31255C8.2 8.21255 7.7 7.01255 7.5 6.51255C7.4 5.81255 7.2 5.81255 7 5.81255C6.9 5.81255 6.7 5.81255 6.5 5.81255C6.3 5.81255 6 6.01255 5.9 6.11255C5.3 6.71255 5 7.41255 5 8.21255C5.1 9.11255 5.4 10.0125 6 10.8125C7.1 12.4125 8.5 13.7125 10.2 14.5125C10.7 14.7125 11.1 14.9125 11.6 15.0125C12.1 15.2125 12.6 15.2125 13.2 15.1125C13.9 15.0125 14.5 14.5125 14.9 13.9125C15.1 13.5125 15.1 13.1125 15 12.7125C15 12.7125 14.8 12.6125 14.6 12.5125ZM17.1 3.41255C13.2 -0.487451 6.9 -0.487451 3 3.41255C-0.2 6.61255 -0.8 11.5125 1.4 15.4125L0 20.5125L5.3 19.1125C6.8 19.9125 8.4 20.3125 10 20.3125C15.5 20.3125 19.9 15.9125 19.9 10.4125C20 7.81255 18.9 5.31255 17.1 3.41255ZM14.4 17.4125C13.1 18.2125 11.6 18.7125 10 18.7125C8.5 18.7125 7.1 18.3125 5.8 17.6125L5.5 17.4125L2.4 18.2125L3.2 15.2125L3 14.9125C0.6 10.9125 1.8 5.91255 5.7 3.41255C9.6 0.912549 14.6 2.21255 17 6.01255C19.4 9.91255 18.3 15.0125 14.4 17.4125Z" fill="#F9F9F9"/>
</svg>
